<svg width="1440" height="10201" viewBox="0 0 1440 10201" fill="none" xmlns="http://www.w3.org/2000/svg">
<g clip-path="url(#clip0_593_796)">
<rect width="1440" height="10201" fill="#010510"/>
<g filter="url(#filter0_f_593_796)">
<circle cx="721" cy="8240" r="389" fill="#1E1CFF" fill-opacity="0.22"/>
</g>
<g filter="url(#filter1_f_593_796)">
<circle cx="748" cy="1896" r="389" fill="#1E1CFF" fill-opacity="0.22"/>
</g>
<g filter="url(#filter2_f_593_796)">
<ellipse cx="736.5" cy="2834" rx="515.5" ry="389" fill="#1E1CFF" fill-opacity="0.22"/>
</g>
<g filter="url(#filter3_f_593_796)">
<circle cx="721" cy="5160" r="389" fill="#1E1CFF" fill-opacity="0.22"/>
</g>
<g filter="url(#filter4_f_593_796)">
<circle cx="721" cy="6780" r="389" fill="#1E1CFF" fill-opacity="0.22"/>
</g>
<path d="M9 18H15M10 21H14M9 15C9.001 13 8.501 12.5 7.5 11.5C6.499 10.5 6.025 9.487 6 8C5.953 4.95 8 3 12 3C16.001 3 18.049 4.95 18 8C17.977 9.487 17.5 10.5 16.5 11.5C15.501 12.5 15.001 13 15 15" stroke="black" stroke-width="1.5" stroke-linecap="round" stroke-linejoin="round"/>
</g>
<defs>
<filter id="filter0_f_593_796" x="-556" y="6963" width="2554" height="2554" filterUnits="userSpaceOnUse" color-interpolation-filters="sRGB">
<feFlood flood-opacity="0" result="BackgroundImageFix"/>
<feBlend mode="normal" in="SourceGraphic" in2="BackgroundImageFix" result="shape"/>
<feGaussianBlur stdDeviation="444" result="effect1_foregroundBlur_593_796"/>
</filter>
<filter id="filter1_f_593_796" x="-529" y="619" width="2554" height="2554" filterUnits="userSpaceOnUse" color-interpolation-filters="sRGB">
<feFlood flood-opacity="0" result="BackgroundImageFix"/>
<feBlend mode="normal" in="SourceGraphic" in2="BackgroundImageFix" result="shape"/>
<feGaussianBlur stdDeviation="444" result="effect1_foregroundBlur_593_796"/>
</filter>
<filter id="filter2_f_593_796" x="-667" y="1557" width="2807" height="2554" filterUnits="userSpaceOnUse" color-interpolation-filters="sRGB">
<feFlood flood-opacity="0" result="BackgroundImageFix"/>
<feBlend mode="normal" in="SourceGraphic" in2="BackgroundImageFix" result="shape"/>
<feGaussianBlur stdDeviation="444" result="effect1_foregroundBlur_593_796"/>
</filter>
<filter id="filter3_f_593_796" x="-556" y="3883" width="2554" height="2554" filterUnits="userSpaceOnUse" color-interpolation-filters="sRGB">
<feFlood flood-opacity="0" result="BackgroundImageFix"/>
<feBlend mode="normal" in="SourceGraphic" in2="BackgroundImageFix" result="shape"/>
<feGaussianBlur stdDeviation="444" result="effect1_foregroundBlur_593_796"/>
</filter>
<filter id="filter4_f_593_796" x="-556" y="5503" width="2554" height="2554" filterUnits="userSpaceOnUse" color-interpolation-filters="sRGB">
<feFlood flood-opacity="0" result="BackgroundImageFix"/>
<feBlend mode="normal" in="SourceGraphic" in2="BackgroundImageFix" result="shape"/>
<feGaussianBlur stdDeviation="444" result="effect1_foregroundBlur_593_796"/>
</filter>
<clipPath id="clip0_593_796">
<rect width="1440" height="10201" fill="white"/>
</clipPath>
</defs>
</svg>
