<svg width="175" height="25" viewBox="0 0 175 25" fill="none" xmlns="http://www.w3.org/2000/svg">
<path fill-rule="evenodd" clip-rule="evenodd" d="M72.8396 15.8556H83.9877L78.1088 6.2125L67.3025 23.6431L62.3725 23.6472L75.5344 2.71667C76.0949 1.86389 77.0574 1.35278 78.1047 1.35278C79.1437 1.35278 80.0926 1.84861 80.6545 2.67778L93.8615 23.6472L88.9301 23.6444L86.6168 19.7472H75.3102L72.8465 15.8556H72.8396ZM10.865 23.6444C4.86719 23.6444 0 18.7028 0 12.6083C0 6.51111 4.86719 1.56944 10.8664 1.56944H23.4951C29.4943 1.56944 34.3588 6.51111 34.3588 12.6083C34.3588 18.7056 29.5053 23.6472 23.5033 23.6472L10.8801 23.6444H10.865ZM123.99 19.75V1.56944H119.813V21.5278C119.813 22.0833 120.032 22.6083 120.422 23C120.832 23.4167 121.372 23.6444 121.953 23.6444H141.006L143.463 19.75H123.99ZM54.8652 16.5C58.9258 16.5 62.2139 13.1528 62.2139 9.03333C62.2139 4.91111 58.9244 1.56944 54.868 1.56944H36.5832V23.6444H40.7586V5.45833H54.5809C56.5277 5.45833 58.0973 7.05833 58.0973 9.03333C58.0973 11.0056 56.5277 12.6083 54.5836 12.6083L42.8066 12.6042L55.2754 23.6458H61.3457L52.9566 16.4931L54.8707 16.4986L54.8652 16.5ZM102.564 23.6444C96.5672 23.6444 91.6986 18.7028 91.6986 12.6083C91.6986 6.51111 96.5658 1.56944 102.568 1.56944H117.578L115.117 5.4625L102.849 5.45972C98.9598 5.45972 95.8125 8.66806 95.8125 12.6125C95.8125 16.5708 98.957 19.7653 102.848 19.7653H117.914L115.46 23.6542H102.568L102.564 23.6444ZM153.676 19.7556C150.463 19.7556 147.742 17.5556 146.911 14.5611H164.771L167.232 10.6681H146.904C147.738 7.66806 150.451 5.45972 153.675 5.45972L165.934 5.47361L168.395 1.58472H153.383C147.381 1.58472 142.514 6.52917 142.514 12.6264C142.514 18.7181 147.381 23.6597 153.374 23.6597H166.266L168.721 19.7708H153.672L153.676 19.7556ZM23.2148 19.7556C27.0977 19.7556 30.2463 16.5569 30.2463 12.6083C30.2463 8.66111 27.099 5.4625 23.2135 5.4625L11.1426 5.45833C7.25977 5.45833 4.1084 8.66111 4.1084 12.6083C4.1084 16.5569 7.2584 19.7556 11.1426 19.7556H23.2107H23.2148ZM172.553 6.41111C173.906 6.41111 175 5.3 175 3.92917C175 2.55417 173.906 1.44306 172.553 1.44306C171.207 1.44306 170.115 2.55417 170.115 3.91528C170.115 5.28333 171.209 6.39583 172.554 6.39583L172.553 6.41111ZM170.635 3.91944C170.635 2.84444 171.492 1.97083 172.554 1.97083C173.621 1.97083 174.482 2.83194 174.482 3.91528C174.482 4.99861 173.63 5.85972 172.568 5.85972C171.507 5.85972 170.65 4.98472 170.65 3.90417L170.635 3.91944ZM172.324 2.45694C172.7 2.45694 172.855 2.45694 173.042 2.52639C173.521 2.69306 173.573 3.1375 173.573 3.30417C173.573 3.33194 173.566 3.42917 173.543 3.52639C173.515 3.63056 173.454 3.84583 173.204 4.00139C173.176 4.02222 173.158 4.0375 173.08 4.06667L173.715 5.22222H173.1L172.545 4.16667H172.173V5.23056H171.637V2.45278H172.324V2.45694ZM172.516 3.70694C172.68 3.70694 172.863 3.69306 172.97 3.52639C173.015 3.45694 173.033 3.38056 173.033 3.29028C173.033 3.1375 172.964 3.01528 172.828 2.95C172.704 2.90139 172.581 2.90139 172.335 2.90139H172.185V3.70139H172.527L172.516 3.70694Z" fill="#91939F"/>
</svg>
