<svg width="241" height="47" viewBox="0 0 241 47" fill="none" xmlns="http://www.w3.org/2000/svg">
<g clip-path="url(#clip0_558_5)">
<path fill-rule="evenodd" clip-rule="evenodd" d="M80.973 11.4892H81.0634C81.5152 11.4892 81.7864 11.8604 81.7864 12.3245V33.857C81.7864 34.2283 81.5152 34.5996 81.0634 34.5996C80.702 34.5996 80.3404 34.3211 80.3404 33.857V12.2317C80.3404 11.8604 80.6116 11.4892 80.973 11.4892ZM61.1832 12.6032H74.8283C75.2803 12.6032 75.5513 13.0673 75.5513 13.4385C75.5513 13.8097 75.2803 14.181 74.8283 14.181H61.9062V23.1838H73.5633C73.9247 23.1838 74.2861 23.4623 74.2861 23.9263C74.2861 24.2976 74.0151 24.6689 73.5633 24.6689H61.9964V33.9501C61.9062 34.4142 61.5446 34.7855 61.0928 34.7855C60.641 34.7855 60.2796 34.4142 60.2796 33.9501V13.4385H60.37C60.37 12.9744 60.7314 12.6032 61.1832 12.6032ZM100.764 19.2856C100.764 18.8215 100.402 18.543 100.041 18.543C99.5889 18.543 99.3177 18.9143 99.3177 19.2856V28.2885C99.3177 31.3512 96.8779 33.7642 93.8958 33.6715C90.733 33.6715 88.9258 31.5368 88.9258 28.1955V19.2856C88.9258 18.8215 88.5642 18.543 88.2028 18.543C87.8414 18.543 87.4798 18.9143 87.4798 19.2856V28.474C87.4798 32.2793 89.8294 35.0636 93.715 35.0636C96.0646 35.1566 98.3237 33.8572 99.4081 31.7225V34.0427C99.4081 34.5068 99.7697 34.7853 100.131 34.7853C100.583 34.7853 100.854 34.414 100.854 34.0427H100.764V19.2856ZM114.499 19.3777C114.499 19.749 114.138 20.0273 113.776 20.0273H108.806V30.3297C108.806 32.6499 110.071 33.4852 111.969 33.4852C112.601 33.4852 113.234 33.3924 113.776 33.2067C114.138 33.2067 114.409 33.4852 114.409 33.8565C114.409 34.135 114.228 34.4133 113.957 34.5061C113.234 34.7846 112.421 34.8774 111.698 34.8774C109.348 34.8774 107.36 33.4852 107.36 30.5152V20.0273H105.643C105.282 20.0273 104.92 19.6561 104.92 19.2849C104.92 18.9136 105.282 18.6352 105.643 18.6352H107.36V14.1802C107.36 13.8089 107.631 13.4377 107.993 13.4377H108.083C108.445 13.4377 108.806 13.8089 108.806 14.1802V18.6352H113.776C114.138 18.6352 114.499 19.0064 114.499 19.3777ZM126.066 20.0273C126.427 20.0273 126.789 19.749 126.789 19.3777C126.789 19.0064 126.427 18.6352 126.066 18.6352H121.096V14.1802C121.096 13.8089 120.734 13.4377 120.373 13.4377H120.282C119.921 13.4377 119.65 13.8089 119.65 14.1802V18.6352H117.933C117.571 18.6352 117.21 18.9136 117.21 19.2849C117.21 19.6561 117.571 20.0273 117.933 20.0273H119.65V30.5152C119.65 33.4852 121.638 34.8774 123.987 34.8774C124.71 34.8774 125.524 34.7846 126.246 34.5061C126.518 34.4133 126.698 34.135 126.698 33.8565C126.698 33.4852 126.427 33.2067 126.066 33.2067C125.524 33.3924 124.891 33.4852 124.258 33.4852C122.361 33.4852 121.096 32.6499 121.096 30.3297V20.0273H126.066ZM129.5 26.6176C129.5 21.884 132.663 18.1716 136.91 18.1716C141.338 18.1716 144.139 21.884 144.139 26.6176C144.139 26.9887 143.778 27.36 143.416 27.36H131.127C131.398 31.3511 134.199 33.6713 137.272 33.6713C139.169 33.6713 141.067 32.836 142.332 31.4438C142.422 31.3511 142.603 31.2581 142.784 31.2581C143.145 31.2581 143.507 31.6294 143.507 32.0007C143.507 32.1864 143.416 32.3719 143.236 32.5577C141.7 34.3211 139.44 35.2492 137.181 35.1564C133.025 35.1564 129.5 31.8151 129.5 26.7104V26.6176ZM131.036 25.8747C131.307 22.3477 133.747 19.6563 136.819 19.6563C140.344 19.6563 142.241 22.6262 142.422 25.8747H131.036ZM150.013 23.2765C151.007 20.585 153.447 18.6359 156.248 18.4503C156.7 18.4503 157.061 18.8216 157.061 19.3784C157.061 19.7497 156.79 20.2138 156.338 20.2138H156.248C152.904 20.585 150.013 23.091 150.013 28.2885V34.2285C149.922 34.6925 149.651 34.971 149.199 34.971C148.838 34.971 148.477 34.5997 148.477 34.2285V19.3784C148.567 18.9144 148.838 18.6359 149.29 18.6359C149.651 18.6359 150.013 19.0072 150.013 19.3784V23.2765ZM180.918 17.6151C179.834 17.6151 178.93 18.3576 178.659 19.4713L176.038 28.1029L173.418 19.4713C173.147 18.3576 172.153 17.5223 170.978 17.5223H170.707C169.532 17.5223 168.538 18.2648 168.267 19.4713L165.646 28.0101L163.116 19.3785C162.845 18.3576 161.941 17.5223 160.857 17.5223H160.767C159.592 17.5223 158.688 18.5432 158.688 19.7498C158.688 20.121 158.779 20.4923 158.869 20.8634V20.8635L162.935 32.8363C163.207 34.0429 164.201 34.8782 165.466 34.971H165.646C166.821 34.971 167.815 34.1357 168.177 32.9291L170.797 24.3904L173.418 32.9291C173.689 34.1357 174.773 34.971 175.948 34.971H176.129C177.394 34.971 178.478 34.1357 178.749 32.8363L182.816 20.7708C182.907 20.4923 182.996 20.121 182.996 19.8426V19.7498C182.996 18.5432 182.092 17.6151 180.918 17.6151ZM187.243 18.4497C188.96 17.8928 190.677 17.5216 192.483 17.6144C195.014 17.6144 196.821 18.3569 198.177 19.5635C199.442 21.0484 200.075 22.9975 199.984 24.9466V32.5573C199.984 33.8567 198.99 34.8775 197.725 34.8775C196.55 34.8775 195.556 34.0422 195.466 32.8356C194.2 34.2278 192.394 35.0631 190.495 34.9703C187.514 34.9703 184.893 33.1141 184.893 29.7728C184.893 26.0603 187.603 24.2969 191.49 24.2969C192.845 24.2969 194.2 24.4826 195.466 24.9466V24.6682C195.466 22.6262 194.291 21.6054 191.941 21.6054C190.857 21.6054 189.773 21.6981 188.689 22.0694C188.507 22.1622 188.236 22.1622 188.056 22.1622C186.972 22.255 186.068 21.4196 186.068 20.306C186.068 19.4706 186.519 18.7281 187.243 18.4497ZM195.557 28.6592C195.557 30.5154 194.02 31.6292 191.852 31.5364C190.406 31.5364 189.322 30.7939 189.322 29.4945V29.4017C189.322 28.0094 190.586 27.0813 192.574 27.0813C193.569 27.0813 194.653 27.3598 195.557 27.7311V28.6592ZM213.901 19.1929C214.172 18.172 215.076 17.5223 216.069 17.5223C217.335 17.5223 218.329 18.5432 218.329 19.7498V19.8426C218.329 20.2138 218.239 20.585 218.057 20.9563L213.178 32.9291C212.726 34.1357 211.642 34.8782 210.467 34.971H210.196C208.931 34.8782 207.937 34.0429 207.575 32.8363L202.514 20.8635C202.334 20.4923 202.243 20.121 202.243 19.7498C202.334 18.4504 203.328 17.5223 204.503 17.5223C205.587 17.5223 206.491 18.2648 206.762 19.2857L210.286 29.031L213.901 19.1929ZM228.27 17.4296C223.481 17.4296 220.137 21.4205 220.137 26.2467V26.9893C220.318 31.6299 224.203 35.2495 228.721 34.9712C230.8 34.9712 232.788 34.3214 234.414 32.9293C234.867 32.558 235.047 32.094 235.047 31.5371V31.4442C235.047 30.4233 234.234 29.588 233.241 29.588C232.879 29.588 232.426 29.6808 232.155 29.9593C231.162 30.7018 229.987 31.1659 228.812 31.0731C226.824 31.1659 225.107 29.7735 224.836 27.7318H234.143C235.318 27.6389 236.222 26.618 236.131 25.4114V25.0401C236.131 20.8637 232.608 17.3367 228.27 17.4296ZM228.27 21.327C226.371 21.327 225.107 22.7192 224.745 24.9466H231.704C231.433 22.812 230.167 21.327 228.27 21.327Z" fill="#91939F"/>
<path fill-rule="evenodd" clip-rule="evenodd" d="M39.2268 2.95926C59.6776 4.95611e-08 46.5892 16.7981 40.2266 21.4981C44.5894 24.7186 49.0432 29.2444 50.952 34.3795C54.4968 43.7797 45.771 45.1722 39.2268 42.8222C32.0462 40.3852 25.6836 35.1629 21.5026 29.0704C20.321 29.0704 19.0485 28.8962 17.8669 28.5482C20.2301 34.9889 21.23 41.6037 20.5937 47C20.5937 36.1204 15.231 25.3277 7.50513 16.363C4.77836 13.2296 7.59605 10.8796 10.0501 13.9259C11.7022 16.1321 13.2196 18.4279 14.5948 20.8019C17.2307 11.9241 30.3192 4.17777 39.2268 2.95926ZM36.3186 18.9738C40.3177 16.6238 52.4974 4.00343 41.1358 5.13491C34.5916 5.8312 26.684 11.6627 23.4117 15.4053C27.9563 14.883 32.5919 16.7979 36.3186 18.9738ZM23.3207 18.1908C26.411 17.9297 29.7742 19.4964 32.3191 21.0631C29.865 22.1946 27.1382 22.8907 24.3205 23.0649C20.1395 23.0649 19.3215 18.539 23.3207 18.1908ZM25.047 28.7219C28.6828 32.6385 33.6819 36.4682 39.0446 37.8608C42.1349 38.6442 45.5889 38.296 44.3163 34.0312C43.0438 30.1145 39.7717 26.633 36.5905 24.0219C35.6814 24.6312 34.6817 25.2404 33.6819 25.6757C30.9551 27.1552 28.0465 28.1997 25.047 28.7219Z" fill="#91939F"/>
</g>
<defs>
<clipPath id="clip0_558_5">
<rect width="241" height="47" fill="white"/>
</clipPath>
</defs>
</svg>
