<svg width="107" height="27" viewBox="0 0 107 27" fill="none" xmlns="http://www.w3.org/2000/svg">
<g clip-path="url(#clip0_558_9)">
<path d="M29.4658 1.76939H32.6318V25.2039H29.4658V1.76939Z" fill="#91939F"/>
<path d="M36.1578 8.23524H38.824V10.9266H38.8908C40.0682 8.86979 41.9348 7.84137 44.4899 7.84137C45.623 7.84137 46.5673 7.99453 47.3229 8.30088C48.0784 8.60719 48.6894 9.03389 49.156 9.58091C49.6225 10.1279 49.9448 10.7844 50.1226 11.5502C50.3225 12.2942 50.4225 13.1256 50.4225 14.0446V25.2039H47.5895V13.7164C47.5895 12.6661 47.2785 11.8346 46.6564 11.222C46.0343 10.6093 45.1788 10.303 44.0901 10.303C43.2234 10.303 42.4681 10.4343 41.8237 10.6969C41.2016 10.9594 40.6794 11.3314 40.2573 11.8128C39.8351 12.2942 39.5129 12.8631 39.2906 13.5195C39.0907 14.154 38.9907 14.8542 38.9907 15.6201V25.2039H36.1578V8.23524Z" fill="#91939F"/>
<path d="M57.277 8.23524H60.7098V10.6969H57.277V21.2325C57.277 21.5608 57.2991 21.8233 57.3435 22.0203C57.4102 22.2172 57.5214 22.3704 57.6769 22.4798C57.8324 22.5892 58.0435 22.6658 58.3102 22.7095C58.5989 22.7314 58.9655 22.7423 59.41 22.7423H60.7098V25.2039H58.5436C57.8101 25.2039 57.1771 25.1602 56.6438 25.0727C56.1328 24.9633 55.7106 24.7772 55.3772 24.5148C55.0662 24.2522 54.8328 23.8801 54.6773 23.3988C54.5217 22.9174 54.4441 22.2828 54.4441 21.4951V10.6969H51.5112V8.23524H54.4441V3.14789H57.277V8.23524Z" fill="#91939F"/>
<path d="M74.489 15.0949C74.4444 14.4385 74.2888 13.8149 74.0222 13.2241C73.7778 12.6333 73.4336 12.13 72.9891 11.7143C72.5669 11.2767 72.0559 10.9375 71.4559 10.6968C70.8782 10.4343 70.234 10.303 69.5228 10.303C68.7896 10.303 68.1231 10.4343 67.5231 10.6968C66.9454 10.9375 66.4455 11.2767 66.0234 11.7143C65.6012 12.1519 65.2681 12.6661 65.0235 13.2569C64.7792 13.8258 64.6348 14.4385 64.5902 15.0949H74.489ZM77.2217 19.8212C76.8442 21.7249 76.011 23.1581 74.7222 24.1208C73.4336 25.0837 71.8116 25.5649 69.8562 25.5649C68.4785 25.5649 67.2787 25.3461 66.2568 24.9086C65.2569 24.4708 64.4126 23.8583 63.7237 23.0705C63.0349 22.2828 62.5128 21.3419 62.1573 20.2479C61.8239 19.1538 61.6352 17.9613 61.5908 16.6703C61.5908 15.3794 61.7907 14.1978 62.1905 13.1256C62.5906 12.0535 63.146 11.1235 63.8569 10.3358C64.5902 9.54808 65.4457 8.93542 66.4232 8.49781C67.4231 8.06017 68.512 7.84137 69.6895 7.84137C71.2227 7.84137 72.4892 8.15864 73.4891 8.79318C74.5111 9.40587 75.3222 10.1936 75.922 11.1564C76.5441 12.1191 76.9662 13.1694 77.1885 14.3072C77.4328 15.445 77.533 16.5281 77.4884 17.5565H64.5902C64.5681 18.3005 64.6569 19.0116 64.8568 19.6899C65.057 20.3464 65.3789 20.9372 65.8234 21.4623C66.2677 21.9655 66.8345 22.3704 67.5231 22.6767C68.2119 22.983 69.023 23.1362 69.9562 23.1362C71.156 23.1362 72.1338 22.8627 72.8891 22.3157C73.6667 21.7686 74.1779 20.9372 74.4223 19.8212H77.2217Z" fill="#91939F"/>
<path d="M79.2586 1.76939H82.0916V25.2039H79.2586V1.76939Z" fill="#91939F"/>
<path d="M85.3137 1.76939H88.1467V25.2039H85.3137V1.76939Z" fill="#91939F"/>
<path d="M93.2686 16.736C93.2686 17.7644 93.4018 18.6834 93.6684 19.493C93.9574 20.2807 94.3461 20.9481 94.835 21.4951C95.3239 22.0203 95.8904 22.4251 96.5349 22.7095C97.2014 22.994 97.9013 23.1362 98.6346 23.1362C99.3678 23.1362 100.056 22.994 100.701 22.7095C101.367 22.4251 101.945 22.0203 102.434 21.4951C102.923 20.9481 103.301 20.2807 103.567 19.493C103.856 18.6834 104 17.7644 104 16.736C104 15.7076 103.856 14.7995 103.567 14.0118C103.301 13.2022 102.923 12.5239 102.434 11.9769C101.945 11.4299 101.367 11.0141 100.701 10.7297C100.056 10.4452 99.3678 10.303 98.6346 10.303C97.9013 10.303 97.2014 10.4452 96.5349 10.7297C95.8904 11.0141 95.3239 11.4299 94.835 11.9769C94.3461 12.5239 93.9574 13.2022 93.6684 14.0118C93.4018 14.7995 93.2686 15.7076 93.2686 16.736ZM90.2689 16.736C90.2689 15.4888 90.4468 14.3291 90.8022 13.2569C91.1577 12.1629 91.691 11.222 92.4019 10.4343C93.113 9.62466 93.9906 8.99012 95.0349 8.53061C96.0792 8.07111 97.279 7.84137 98.6346 7.84137C100.012 7.84137 101.212 8.07111 102.234 8.53061C103.278 8.99012 104.156 9.62466 104.867 10.4343C105.578 11.222 106.111 12.1629 106.467 13.2569C106.822 14.3291 107 15.4888 107 16.736C107 17.9832 106.822 19.1429 106.467 20.2151C106.111 21.2873 105.578 22.2281 104.867 23.0377C104.156 23.8254 103.278 24.4491 102.234 24.9086C101.212 25.3461 100.012 25.5649 98.6346 25.5649C97.279 25.5649 96.0792 25.3461 95.0349 24.9086C93.9906 24.4491 93.113 23.8254 92.4019 23.0377C91.691 22.2281 91.1577 21.2873 90.8022 20.2151C90.4468 19.1429 90.2689 17.9832 90.2689 16.736Z" fill="#91939F"/>
<path d="M0.00750732 0.0110836C4.41731 2.91801 7.32075 7.86837 7.32075 13.4866C7.32075 19.1042 4.41639 24.0515 0.00750732 26.9587V22.2851C2.26046 20.0153 3.64985 16.9114 3.64985 13.4866C3.64985 10.061 2.26151 6.95456 0.00750732 4.68462V0.0110836Z" fill="#91939F"/>
<path d="M7.32074 0.0110836C11.7305 2.91801 14.634 7.86837 14.634 13.4866C14.634 19.1042 11.7296 24.0515 7.32074 26.9587V22.2851C9.57371 20.0153 10.9631 16.9114 10.9631 13.4866C10.9631 10.061 9.57475 6.95456 7.32074 4.68462V0.0110836Z" fill="#91939F"/>
<path d="M14.634 0.0110836C19.0438 2.91801 21.9473 7.86837 21.9473 13.4866C21.9473 19.1042 19.0429 24.0515 14.634 26.9587V22.2851C16.887 20.0153 18.2764 16.9114 18.2764 13.4866C18.2764 10.061 16.888 6.95456 14.634 4.68462V0.0110836Z" fill="#91939F"/>
</g>
<defs>
<clipPath id="clip0_558_9">
<rect width="107" height="27" fill="white"/>
</clipPath>
</defs>
</svg>
