<svg width="162" height="81" viewBox="0 0 162 81" fill="none" xmlns="http://www.w3.org/2000/svg">
<path d="M64.9688 47.678H61.6613V33.1614H64.9688V39.0434H72.329V33.1614H75.6365V47.6766H72.329V41.6016H64.9688V47.678ZM81.6345 41.8541C81.6345 44.4218 82.4445 45.4909 85.1796 45.4909C87.9147 45.4909 88.6896 44.411 88.6896 41.8541V33.1601H91.9944V41.9351C92.1645 43.3026 91.8392 44.685 91.0764 45.8325C89.7804 47.2527 87.8999 47.8373 85.1661 47.8373C82.4324 47.8373 80.5275 47.2527 79.2369 45.8325C78.5133 45.0522 78.3351 43.7738 78.3351 41.9351V33.1601H81.6197L81.6345 41.8541ZM102.807 33.1601L109.503 47.6766H105.84L104.396 44.2179H97.5645L96.1646 47.6766H92.6505L99.2993 33.1601H102.807ZM98.6256 41.6327H103.31L100.925 36.0545L98.6256 41.6327ZM131.895 33.1614L127.035 47.6766H122.985L119.651 36.855L116.721 47.6915H112.691L107.457 33.1763H111.008L114.653 44.3354L117.717 33.1763H121.615L125.136 44.3354L128.528 33.1763L131.895 33.1614ZM136.357 39.0636H145.506V41.58H136.326C136.343 44.1882 137.46 45.1359 140.065 45.1359H145.492V47.6644H139.911C138.178 47.8264 136.442 47.3769 135.008 46.3914C134.17 45.7072 133.512 44.8279 133.093 43.8304C132.673 42.8329 132.505 41.7478 132.602 40.6701C132.602 35.5401 134.945 33.1506 140 33.1506H145.491V35.6805H140.064C137.682 35.6792 136.48 36.7686 136.345 39.0528M148.419 33.1614H151.875V47.678H148.419V33.1614Z" fill="#91939F"/>
<path d="M29.5421 50.0148C29.5907 49.9743 29.6055 49.9068 29.5799 49.8487C26.2018 42.5994 21.9906 35.7682 17.0316 29.4934C17.0316 29.4934 13.0896 33.2329 13.3691 36.9859C13.5033 38.7347 14.3252 40.359 15.6546 41.503C19.0931 44.8551 27.4199 49.086 29.3571 50.0432C29.4179 50.0769 29.4948 50.0647 29.5434 50.0161M28.2555 52.8836C28.2426 52.8465 28.2186 52.8144 28.1866 52.7917C28.1547 52.769 28.1165 52.7567 28.0773 52.7566V52.7539L14.2128 53.2373C15.7154 55.9184 18.2628 58.0001 20.8859 57.3615C22.7057 56.9066 26.8313 54.0297 28.1759 53.0591V53.055C28.2798 52.9605 28.2434 52.8849 28.2434 52.8849M28.4648 51.6375C28.5323 51.5295 28.4108 51.435 28.4108 51.435L28.4121 51.4296C22.3371 47.3256 10.5219 41.017 10.5219 41.017C9.88322 42.9941 10.018 45.1398 10.8992 47.0214C11.7803 48.9029 13.3423 50.3803 15.2699 51.1556C16.1166 51.4911 17.0119 51.688 17.9213 51.7388C18.1292 51.7793 26.1671 51.7428 28.319 51.7333C28.3797 51.7266 28.4337 51.6902 28.4621 51.6362M29.3855 23.5075C28.7807 23.5615 27.1526 23.9314 27.1526 23.9314C25.002 24.4795 23.2875 26.0982 22.6139 28.2109C22.2334 29.6528 22.2399 31.1694 22.6328 32.6079C23.8572 38.043 29.8877 46.9773 31.181 48.8511C31.2728 48.9429 31.3484 48.9092 31.3484 48.9092C31.4267 48.8903 31.4807 48.8174 31.4766 48.7364H31.4793C33.4719 28.7928 29.3868 23.4913 29.3868 23.4913M33.9728 48.9037C34.0484 48.9348 34.1348 48.9024 34.1726 48.8295C35.5037 46.9044 41.4977 38.02 42.7154 32.6079C43.0799 31.1661 43.088 29.6568 42.7383 28.2109C42.4025 27.1663 41.8053 26.2249 41.0034 25.4759C40.2015 24.727 39.2215 24.1953 38.1564 23.9314C38.1564 23.9314 37.0967 23.6642 35.9735 23.5062C35.9735 23.5062 31.8641 28.7955 33.8621 48.7512H33.8648C33.8661 48.8187 33.908 48.8808 33.9728 48.9037ZM37.2533 52.7688C37.2533 52.7688 37.1183 52.785 37.0967 52.8741C37.0805 52.9416 37.1007 53.0145 37.1507 53.0631C38.4737 54.0148 42.4967 56.8431 44.4407 57.3737C44.4407 57.3737 48.0249 58.5941 51.1367 53.2481L37.256 52.7621L37.2533 52.7688ZM54.8303 40.986C54.8303 40.986 43.0448 47.3094 36.9495 51.4215C36.9189 51.4444 36.896 51.4759 36.8837 51.5121C36.8714 51.5482 36.8704 51.5872 36.8807 51.624C36.8807 51.624 36.9387 51.728 37.0238 51.728V51.7307L47.6699 51.7036C48.4884 51.6393 49.2927 51.4536 50.0567 51.1528C52.0479 50.3725 53.6504 48.839 54.5198 46.8842C55.3357 45.0205 55.446 42.9237 54.8303 40.9846M35.8358 50.0296C35.8898 50.0701 35.964 50.0756 36.0248 50.0432C38.0093 49.0523 46.2753 44.8497 49.6976 41.5152C51.0266 40.3624 51.8473 38.732 51.9818 36.9779C52.2315 33.0966 48.3368 29.5056 48.3368 29.5056C43.3877 35.764 39.1834 42.5769 35.8088 49.8069H35.8128C35.7764 49.8812 35.7912 49.9689 35.8506 50.0283" fill="#91939F"/>
</svg>
