<svg width="56" height="33" viewBox="0 0 56 33" fill="none" xmlns="http://www.w3.org/2000/svg">
<g clip-path="url(#clip0_558_23)">
<path d="M15.8358 11.99C15.8358 12.6683 15.9099 13.2183 16.0397 13.6217C16.1881 14.025 16.3735 14.465 16.6331 14.9417C16.7258 15.0883 16.7629 15.235 16.7629 15.3633C16.7629 15.5467 16.6517 15.73 16.4106 15.9133L15.2424 16.6833C15.0755 16.7933 14.9086 16.8483 14.7603 16.8483C14.5748 16.8483 14.3894 16.7567 14.204 16.5917C13.9444 16.3167 13.7219 16.0233 13.5364 15.73C13.351 15.4183 13.1656 15.07 12.9616 14.6483C11.5152 16.335 9.69801 17.1783 7.50993 17.1783C5.95232 17.1783 4.70993 16.7383 3.80132 15.8583C2.89271 14.9783 2.42914 13.805 2.42914 12.3383C2.42914 10.78 2.98543 9.515 4.11656 8.56167C5.24768 7.60833 6.74967 7.13167 8.6596 7.13167C9.29006 7.13167 9.93907 7.18667 10.6252 7.27833C11.3113 7.37 12.0159 7.51667 12.7576 7.68167V6.34333C12.7576 4.95 12.4609 3.97833 11.8861 3.41C11.2927 2.84167 10.2914 2.56667 8.86357 2.56667C8.21457 2.56667 7.54702 2.64 6.86093 2.805C6.17483 2.97 5.50728 3.17167 4.85828 3.42833C4.56159 3.55667 4.33907 3.63 4.20927 3.66667C4.07947 3.70333 3.98675 3.72167 3.91258 3.72167C3.65298 3.72167 3.52318 3.53833 3.52318 3.15333V2.255C3.52318 1.96167 3.56026 1.74167 3.65298 1.61333C3.74569 1.485 3.91258 1.35667 4.17218 1.22833C4.82119 0.898333 5.6 0.623333 6.50861 0.403333C7.41722 0.165 8.38146 0.0550001 9.40132 0.0550001C11.6079 0.0550001 13.2212 0.55 14.2596 1.54C15.2795 2.53 15.7987 4.03333 15.7987 6.05V11.99H15.8358ZM8.30728 14.7767C8.9192 14.7767 9.54967 14.6667 10.2172 14.4467C10.8848 14.2267 11.4781 13.8233 11.9788 13.2733C12.2755 12.925 12.498 12.54 12.6093 12.1C12.7205 11.66 12.7947 11.1283 12.7947 10.505V9.735C12.257 9.60667 11.6821 9.49667 11.0887 9.42333C10.4954 9.35 9.92053 9.31333 9.34569 9.31333C8.10331 9.31333 7.1947 9.55167 6.58278 10.0467C5.97086 10.5417 5.67417 11.2383 5.67417 12.155C5.67417 13.0167 5.89669 13.6583 6.36026 14.0983C6.8053 14.5567 7.4543 14.7767 8.30728 14.7767ZM23.1973 16.7567C22.8636 16.7567 22.6411 16.7017 22.4927 16.5733C22.3444 16.4633 22.2146 16.2067 22.1033 15.8583L17.7457 1.68667C17.6344 1.32 17.5788 1.08167 17.5788 0.953333C17.5788 0.66 17.7272 0.495 18.0238 0.495H19.8411C20.1934 0.495 20.4344 0.55 20.5642 0.678333C20.7126 0.788333 20.8238 1.045 20.9351 1.39333L24.0503 13.53L26.943 1.39333C27.0358 1.02667 27.147 0.788333 27.2954 0.678333C27.4437 0.568333 27.7033 0.495 28.0371 0.495H29.5205C29.8728 0.495 30.1139 0.55 30.2622 0.678333C30.4106 0.788333 30.5404 1.045 30.6146 1.39333L33.5444 13.6767L36.7523 1.39333C36.8636 1.02667 36.9934 0.788333 37.1232 0.678333C37.2715 0.568333 37.5126 0.495 37.8464 0.495H39.5709C39.8675 0.495 40.0344 0.641667 40.0344 0.953333C40.0344 1.045 40.0159 1.13667 39.9973 1.24667C39.9788 1.35667 39.9417 1.50333 39.8675 1.705L35.3987 15.8767C35.2874 16.2433 35.1576 16.4817 35.0093 16.5917C34.8609 16.7017 34.6199 16.775 34.3046 16.775H32.7099C32.3576 16.775 32.1166 16.72 31.9682 16.5917C31.8199 16.4633 31.6901 16.225 31.6159 15.8583L28.7417 4.03333L25.8861 15.84C25.7934 16.2067 25.6821 16.445 25.5338 16.5733C25.3854 16.7017 25.1258 16.7567 24.7921 16.7567H23.1973ZM47.0252 17.2517C46.0609 17.2517 45.0967 17.1417 44.1695 16.9217C43.2424 16.7017 42.5192 16.4633 42.0371 16.1883C41.7404 16.0233 41.5364 15.84 41.4622 15.675C41.3881 15.51 41.351 15.3267 41.351 15.1617V14.2267C41.351 13.8417 41.4993 13.6583 41.7775 13.6583C41.8887 13.6583 42 13.6767 42.1113 13.7133C42.2225 13.75 42.3894 13.8233 42.5748 13.8967C43.2053 14.1717 43.8914 14.3917 44.6146 14.5383C45.3563 14.685 46.0795 14.7583 46.8212 14.7583C47.9894 14.7583 48.898 14.5567 49.5285 14.1533C50.1589 13.75 50.4927 13.1633 50.4927 12.4117C50.4927 11.8983 50.3258 11.4767 49.992 11.1283C49.6583 10.78 49.0278 10.4683 48.1192 10.175L45.4305 9.35C44.0768 8.92833 43.0755 8.305 42.4636 7.48C41.8517 6.67333 41.5364 5.775 41.5364 4.82167C41.5364 4.05167 41.7033 3.37333 42.0371 2.78667C42.3709 2.2 42.8159 1.68667 43.3722 1.28333C43.9285 0.861667 44.5589 0.55 45.3007 0.33C46.0424 0.11 46.8212 0.0183334 47.6371 0.0183334C48.045 0.0183334 48.4715 0.0366668 48.8795 0.0916668C49.306 0.146667 49.6954 0.22 50.0848 0.293333C50.4556 0.385 50.8079 0.476667 51.1417 0.586667C51.4755 0.696667 51.7351 0.806667 51.9205 0.916667C52.1801 1.06333 52.3656 1.21 52.4768 1.375C52.5881 1.52167 52.6437 1.72333 52.6437 1.98V2.84167C52.6437 3.22667 52.4954 3.42833 52.2172 3.42833C52.0689 3.42833 51.8278 3.355 51.5126 3.20833C50.4556 2.73167 49.2689 2.49333 47.9523 2.49333C46.8954 2.49333 46.0609 2.65833 45.4861 3.00667C44.9113 3.355 44.6146 3.88667 44.6146 4.63833C44.6146 5.15167 44.8 5.59167 45.1709 5.94C45.5417 6.28833 46.2278 6.63667 47.2106 6.94833L49.8437 7.77333C51.1788 8.195 52.143 8.78167 52.7179 9.53333C53.2927 10.285 53.5709 11.1467 53.5709 12.1C53.5709 12.8883 53.404 13.6033 53.0887 14.2267C52.755 14.85 52.3099 15.4 51.7351 15.84C51.1603 16.2983 50.4742 16.6283 49.6768 16.8667C48.8424 17.1233 47.9709 17.2517 47.0252 17.2517Z" fill="#91939F"/>
<path d="M50.5298 26.1617C44.4291 30.6167 35.5655 32.9817 27.9443 32.9817C17.2636 32.9817 7.63971 29.0767 0.370837 22.5867C-0.203998 22.0733 0.315208 21.3767 1.0013 21.78C8.86355 26.29 18.5616 29.0217 28.5934 29.0217C35.3616 29.0217 42.7973 27.6283 49.6397 24.7683C50.6596 24.31 51.5311 25.4283 50.5298 26.1617Z" fill="#91939F"/>
<path d="M53.0702 23.3017C52.2914 22.3117 47.9152 22.825 45.9311 23.0633C45.3377 23.1367 45.245 22.6233 45.7828 22.2383C49.2689 19.8183 54.9987 20.515 55.6662 21.3217C56.3338 22.1467 55.4808 27.8117 52.2172 30.525C51.7166 30.9467 51.2344 30.7267 51.4569 30.1767C52.1987 28.3617 53.849 24.2733 53.0702 23.3017Z" fill="#91939F"/>
</g>
<rect x="0.5" y="0.5" width="55" height="32" stroke="black"/>
<defs>
<clipPath id="clip0_558_23">
<rect width="56" height="33" fill="white"/>
</clipPath>
</defs>
</svg>
