<svg width="93" height="59" viewBox="0 0 93 59" fill="none" xmlns="http://www.w3.org/2000/svg">
<g clip-path="url(#clip0_558_29)">
<path d="M10.9712 28.9807H9.23831V38.7913C9.23831 41.9521 8.01587 43.5442 5.54555 43.5442C2.99895 43.5442 1.72565 41.9016 1.72565 38.6398V28.9807H-0.00720215V38.766C-0.00720215 43.0898 1.77651 45.2391 5.34211 45.2391C9.0603 45.2391 10.9457 42.9889 10.9457 38.5136V28.9807H10.9712ZM20.293 44.4782C21.8206 44.4782 23.0684 44.0743 24.062 43.2395C25.0556 42.4047 25.5642 41.3426 25.5642 40.003C25.5642 38.9409 25.2336 38.0556 24.5706 37.3993C23.9076 36.7412 23.043 36.3373 21.9477 36.2111V36.1606C22.8141 35.8829 23.5007 35.4267 24.0111 34.7704C24.5215 34.1141 24.7504 33.355 24.7504 32.4697C24.7504 31.4077 24.3435 30.5476 23.5025 29.8913C22.687 29.2332 21.5663 28.905 20.1658 28.905H15.5303V44.48H20.293V44.4782ZM19.6318 30.5476C21.7207 30.5476 22.7651 31.3067 22.7651 32.8231C22.7651 33.7084 22.4599 34.39 21.8732 34.8714C21.2865 35.351 20.4474 35.6052 19.4029 35.6052H17.4412V30.5747H19.6318V30.5476ZM19.6318 37.2226C22.2547 37.2226 23.5534 38.1332 23.5534 39.9777C23.5534 40.863 23.2482 41.5698 22.6361 42.0765C22.024 42.5814 21.1594 42.8356 20.0387 42.8356H17.4412V37.2226H19.6318ZM31.195 32.4192H29.5149V43.8219H31.195V32.4192ZM49.993 47.3866V46.0974C44.5674 46.375 43.8045 44.8839 43.4975 44.48C44.2877 44.2528 44.6946 43.9499 45.2813 43.4432C45.868 42.9384 46.3511 42.3307 46.7326 41.5969C47.114 40.8883 47.3956 40.0805 47.599 39.1699C47.777 38.2846 47.8787 37.3236 47.8787 36.3121C47.8787 33.9104 47.3193 31.963 46.1713 30.4719C45.0233 28.9807 43.5738 28.2469 41.7393 28.2469C39.7013 28.2469 38.1228 29.006 36.9512 30.5476C35.8051 32.064 35.2184 34.1123 35.2184 36.6907C35.2184 39.0924 35.7778 41.0397 36.9258 42.5309C37.2055 42.9095 37.5379 43.2142 37.8939 43.4919C38.2499 43.7696 38.6078 43.9968 38.9892 44.2005C39.3707 44.4025 39.7794 44.5287 40.1862 44.6297C40.5931 44.7306 41.0018 44.7811 41.4087 44.7811C41.7901 45.3383 44.1333 47.8914 49.993 47.3866ZM44.9743 31.6853C45.7899 32.8231 46.1967 34.4657 46.1967 36.5897C46.1967 38.638 45.7644 40.2554 44.9234 41.3931C44.0824 42.5309 42.9108 43.1133 41.4595 43.1133C40.0845 43.1133 38.9638 42.5056 38.0974 41.3174C37.2309 40.1039 36.8241 38.51 36.8241 36.5645C36.8241 34.5919 37.2564 32.9998 38.1482 31.7863C39.0147 30.5728 40.1608 29.9652 41.5867 29.9652C43.0126 29.94 44.1587 30.5224 44.9743 31.6853ZM64.0011 28.9807H62.2683V38.5389C62.2683 41.6239 61.0459 43.1656 58.5755 43.1656C56.0289 43.1656 54.7556 41.5734 54.7556 38.3874V28.9825H53.0228V38.5154C53.0228 42.713 54.8065 44.837 58.3721 44.837C62.0903 44.837 63.9503 42.6625 63.9503 38.2882V28.9843H64.0011V28.9807ZM70.1642 32.3435H68.484V44.3033H70.1642V32.3435ZM84.403 28.7265H72.3039V30.4214H77.3209V44.7072H79.3589V30.4214H84.3758V28.7265H84.403ZM90.3881 32.5454H88.7079V44.4295H90.3881V32.5454Z" fill="#91939F"/>
<path d="M58.4483 46.6022H57.9143V50.1164C57.9143 50.4698 57.9143 50.6988 57.9397 50.8503H57.9143C57.8889 50.7998 57.838 50.6736 57.7363 50.5221L55.4694 46.6022H54.781V51.5823H55.315V47.9672C55.315 47.6138 55.315 47.3848 55.2896 47.2838H55.315C55.3659 47.3848 55.3913 47.4857 55.4676 47.5867L57.8108 51.5571H58.4738V46.6022H58.4483ZM62.4989 51.0522H60.6135V49.3068H62.2682V48.7767H60.6135V47.1089H62.3972V46.5788H60.0795V51.5589H62.4989V51.0522ZM66.4968 46.6022H63.3381V47.1323H64.6368V51.5823H65.1709V47.1341H66.495L66.4968 46.6022ZM72.5854 46.6022L71.6681 50.4446C71.6173 50.6465 71.5918 50.798 71.5918 50.9242C71.5664 50.7475 71.541 50.596 71.5156 50.4698L70.5474 46.6275H70.0388L69.0452 50.4446C68.9944 50.6465 68.969 50.8232 68.9435 50.9494H68.9181C68.9181 50.7727 68.8927 50.6213 68.8418 50.4446L67.8737 46.6275H67.287L68.6111 51.6076H69.2233L70.166 47.9672C70.2168 47.8157 70.2423 47.639 70.2423 47.4623C70.2423 47.639 70.2677 47.8157 70.3185 47.9672L71.2613 51.6076H71.8988L73.1721 46.6275H72.5854V46.6022ZM77.7041 50.9513C78.0855 50.4716 78.2908 49.8388 78.2908 49.0292C78.2908 48.2701 78.0873 47.6642 77.7041 47.2081C77.3226 46.7537 76.8122 46.4995 76.1765 46.4995C75.488 46.4995 74.954 46.7266 74.5726 47.2081C74.1657 47.6877 73.9859 48.3206 73.9859 49.1301C73.9859 49.8892 74.1893 50.4698 74.5726 50.9513C74.954 51.4056 75.4899 51.6599 76.1256 51.6599C76.7868 51.6599 77.2972 51.4327 77.7041 50.9513ZM77.3226 47.5885C77.6023 47.9419 77.7295 48.4486 77.7295 49.1049C77.7295 49.7378 77.5769 50.2426 77.2972 50.596C77.0174 50.9494 76.6088 51.1262 76.1256 51.1262C75.6679 51.1262 75.2846 50.9494 74.9794 50.5708C74.6997 50.1922 74.5471 49.7107 74.5471 49.0797C74.5471 48.472 74.6997 47.9672 75.0049 47.5885C75.31 47.2099 75.6933 47.0332 76.1765 47.0332C76.6342 47.0332 77.0429 47.2099 77.3226 47.5885ZM82.0344 50.0912C81.9835 49.9902 81.9072 49.8892 81.8564 49.8135C81.8055 49.7378 81.7546 49.6621 81.7038 49.5863C81.6529 49.5358 81.6021 49.4601 81.5512 49.4096C81.5003 49.3591 81.4241 49.3086 81.3478 49.2834V49.2582C81.5003 49.2077 81.6529 49.1572 81.7546 49.0815C81.8818 49.0057 81.9835 48.9048 82.0598 48.8038C82.1361 48.6776 82.2124 48.5514 82.2632 48.4251C82.3141 48.2737 82.3395 48.1222 82.3395 47.9455C82.3395 47.7183 82.3141 47.5416 82.2378 47.3631C82.1615 47.1864 82.0598 47.0602 81.9581 46.9592C81.8309 46.8583 81.6783 46.7573 81.5258 46.7068C81.3478 46.6563 81.1698 46.6311 80.9663 46.6311H79.6167V51.6112H80.1508V49.4872H80.5831C80.6848 49.4872 80.7611 49.4872 80.8628 49.5376C80.9391 49.5629 81.0154 49.6134 81.0917 49.6639C81.1679 49.7143 81.2188 49.7901 81.2951 49.891C81.3714 49.992 81.4222 50.093 81.4985 50.2192L82.2632 51.6094H82.9008L82.0344 50.0912ZM80.8882 47.1341C81.1934 47.1341 81.4222 47.2099 81.5766 47.3613C81.7292 47.5128 81.8055 47.7147 81.8055 47.9942C81.8055 48.1457 81.7801 48.2719 81.7292 48.3981C81.6784 48.5243 81.6275 48.6253 81.5258 48.701C81.4495 48.7767 81.3478 48.8525 81.2206 48.903C81.1189 48.9534 80.9917 48.9787 80.8392 48.9787H80.1253V47.1828H80.89V47.1341H80.8882ZM85.0151 48.9787L86.9768 46.577H86.3138L84.6064 48.7515C84.5555 48.802 84.5047 48.8777 84.4792 48.9282H84.4538V46.577H83.9452V51.5571H84.4792V49.1049H84.5047C84.5301 49.1301 84.5555 49.1806 84.6318 49.2816L86.3901 51.5571H87.1294L85.0151 48.9787ZM88.172 51.5084C88.2737 51.5336 88.3754 51.5841 88.4772 51.6094C88.5789 51.6346 88.706 51.6599 88.8077 51.6599C88.9095 51.6599 89.0112 51.6851 89.062 51.6851C89.2909 51.6851 89.4943 51.6599 89.6742 51.6094C89.8776 51.5589 90.0302 51.4832 90.1828 51.3822C90.3353 51.2812 90.4625 51.1298 90.5388 50.9783C90.6151 50.8016 90.6659 50.5996 90.6659 50.3454C90.6659 50.1687 90.6405 49.992 90.5642 49.8658C90.4879 49.7143 90.4116 49.5881 90.3099 49.4619C90.2082 49.3357 90.081 49.2347 89.9285 49.1338C89.7759 49.0328 89.6233 48.9318 89.4707 48.8561C89.3182 48.7803 89.1656 48.6794 89.0384 48.6289C88.9113 48.5532 88.8096 48.4774 88.7333 48.4017C88.657 48.326 88.5807 48.2502 88.5298 48.1493C88.479 48.0483 88.4535 47.9473 88.4535 47.8211C88.4535 47.6949 88.479 47.5687 88.5298 47.4677C88.5807 47.3667 88.657 47.291 88.7587 47.2405C88.8604 47.19 88.9621 47.1395 89.0639 47.1143C89.191 47.0891 89.2927 47.0638 89.4199 47.0638C89.8522 47.0638 90.1846 47.1648 90.4643 47.3667V46.7086C90.2609 46.5824 89.9303 46.5319 89.4962 46.5319C89.2927 46.5319 89.1147 46.5572 88.9095 46.6076C88.7315 46.6581 88.5534 46.7339 88.4009 46.8601C88.2483 46.961 88.1211 47.1125 88.0449 47.264C87.9431 47.4407 87.9177 47.6174 87.9177 47.8464C87.9177 48.0231 87.9431 48.1998 87.994 48.326C88.0449 48.4774 88.1211 48.5784 88.2229 48.7046C88.3246 48.8056 88.4517 48.9066 88.5789 49.0075C88.706 49.1085 88.8586 49.1842 89.0112 49.2852C89.1638 49.3609 89.2909 49.4367 89.4435 49.5124C89.5706 49.5881 89.6978 49.6639 89.7741 49.7396C89.8758 49.8153 89.9521 49.9163 90.0029 50.0173C90.0538 50.1182 90.0792 50.2444 90.0792 50.3707C90.0792 50.6231 90.0029 50.7998 89.8249 50.9531C89.6724 51.0793 89.4181 51.155 89.0857 51.155C88.9839 51.155 88.8822 51.155 88.7805 51.1298C88.6788 51.1045 88.5516 51.0793 88.4499 51.0288C88.3482 50.9783 88.221 50.9531 88.1448 50.8773C88.043 50.8268 87.9667 50.7511 87.8905 50.7006V51.384C87.994 51.4327 88.0703 51.4579 88.172 51.5084Z" fill="#91939F"/>
<mask id="mask0_558_29" style="mask-type:luminance" maskUnits="userSpaceOnUse" x="28" y="7" width="65" height="21">
<path d="M29.0554 24.0241C29.0554 24.0241 27.3752 24.7074 28.8773 25.9966C28.8773 25.9966 30.4049 27.3363 33.5637 27.3868C33.5637 27.3868 34.7861 27.4625 35.678 27.0587L60.8425 13.8096L57.1497 21.6729L60.1304 22.6844L61.48 13.8096L64.2809 25.8957C64.2809 25.8957 64.6115 26.9829 67.4142 27.1849C67.4142 27.1849 69.91 27.4373 71.3358 26.7052C71.3358 26.7052 72.9652 26.1229 72.2786 25.0374L62.6498 14.1396L85.8544 27.1362C85.8544 27.1362 87.2548 27.5906 88.9114 27.2372C88.9114 27.2372 90.3373 27.1362 91.9684 26.2256C91.9684 26.2256 93.9301 25.1636 92.4261 24.0511L63.8995 13.7591L80.6086 14.4678V11.9651L62.0921 13.1028L66.8548 8.93049L64.9948 7.26265L61.658 13.0523L53.8638 9.91678L52.9465 12.0408L59.5437 13.0018L43.8028 13.3805L41.2816 17.3004L59.798 13.6095L29.0554 24.0241Z" fill="white"/>
</mask>
<g mask="url(#mask0_558_29)">
<path d="M29.0554 24.0241C29.0554 24.0241 27.3752 24.7074 28.8773 25.9966C28.8773 25.9966 30.4049 27.3363 33.5637 27.3868C33.5637 27.3868 34.7861 27.4625 35.678 27.0587L60.8425 13.8096L57.1497 21.6729L60.1304 22.6844L61.48 13.8096L64.2809 25.8957C64.2809 25.8957 64.6115 26.9829 67.4142 27.1849C67.4142 27.1849 69.91 27.4373 71.3358 26.7052C71.3358 26.7052 72.9652 26.1229 72.2786 25.0374L62.6498 14.1396L85.8544 27.1362C85.8544 27.1362 87.2548 27.5906 88.9114 27.2372C88.9114 27.2372 90.3373 27.1362 91.9684 26.2256C91.9684 26.2256 93.9301 25.1636 92.4261 24.0511L63.8995 13.7591L80.6086 14.4678V11.9651L62.0921 13.1028L66.8548 8.93049L64.9948 7.26265L61.658 13.0523L53.8638 9.91678L52.9465 12.0408L59.5437 13.0018L43.8028 13.3805L41.2816 17.3004L59.798 13.6095L29.0554 24.0241Z" fill="#91939F"/>
</g>
<path d="M28.5721 25.0861C28.5721 25.0861 28.6993 24.2765 31.0933 24.3522C31.0933 24.3522 33.1313 24.4532 34.4809 25.1366C35.8051 25.8452 36.7478 26.8315 33.9215 27.0587C33.9215 27.0587 32.3176 27.2354 30.5847 26.579C30.5829 26.5772 28.6484 25.9462 28.5721 25.0861Z" fill="white"/>
<path d="M64.7913 25.719C64.7913 25.719 64.7658 24.9094 67.1599 24.556C67.1599 24.556 69.1979 24.3035 70.6237 24.7579C72.0496 25.2123 73.1449 26.0471 70.4203 26.7557C70.4203 26.7557 68.8673 27.2101 67.0581 26.8567C67.0327 26.8315 65.0201 26.552 64.7913 25.719Z" fill="white"/>
<path d="M85.3204 26.35C85.3204 26.35 85.1423 25.5657 87.4346 24.7579C87.4346 24.7579 89.3709 24.125 90.8731 24.3288C92.3753 24.5055 93.5977 25.1384 91.0257 26.3266C91.0257 26.3266 89.5744 27.0352 87.7398 27.0352C87.7398 27.0334 85.7018 27.1344 85.3204 26.35Z" fill="white"/>
</g>
<defs>
<clipPath id="clip0_558_29">
<rect width="93" height="59" fill="white"/>
</clipPath>
</defs>
</svg>
