<svg width="69" height="69" viewBox="0 0 69 69" fill="none" xmlns="http://www.w3.org/2000/svg">
<path d="M46.9516 52.2416V49.0475L46.8884 49.0763C46.1696 49.4241 45.3876 49.6225 44.5855 49.6599C43.7558 49.7231 42.9317 49.4808 42.2682 48.9785C41.7952 48.6133 41.4426 48.1146 41.2563 47.5468C41.0549 46.9264 41.032 46.2619 41.1901 45.6291C41.3396 44.9823 41.7019 44.4044 42.2165 43.9933C42.6765 43.608 43.2371 43.3665 43.8323 43.2975C44.883 43.1798 45.945 43.378 46.8826 43.8668L46.9516 43.9041V40.6928L46.805 40.6525C45.8667 40.3531 44.8822 40.2245 43.8984 40.273C43.0022 40.2955 42.1195 40.4968 41.3023 40.8653C40.4771 41.2448 39.7497 41.8054 39.1776 42.5069C38.3047 43.6096 37.8202 44.9696 37.7995 46.3758C37.7787 47.782 38.2227 49.1557 39.0626 50.2838C39.9107 51.3705 41.101 52.1381 42.4408 52.4573C43.8524 52.8023 45.333 52.7505 46.7159 52.3078L46.9516 52.2416ZM15.341 52.2416V49.0475L15.2778 49.0763C14.559 49.4241 13.777 49.6225 12.9749 49.6599C12.1451 49.7239 11.3207 49.4815 10.6576 48.9785C10.1846 48.6139 9.8328 48.1148 9.6485 47.5468C9.44494 46.9269 9.42101 46.262 9.5795 45.6291C9.729 44.9823 10.0884 44.4044 10.6059 43.9933C11.0659 43.608 11.6265 43.3665 12.2216 43.2975C13.2724 43.1798 14.3344 43.378 15.272 43.8668L15.341 43.9041V40.6928L15.1944 40.6525C14.256 40.3531 13.2715 40.2245 12.2878 40.273C11.3916 40.2958 10.509 40.4971 9.69163 40.8653C8.8671 41.244 8.13957 41.8054 7.56413 42.5069C6.69216 43.6098 6.20806 44.9695 6.18675 46.3753C6.16544 47.7812 6.60811 49.1549 7.44625 50.2838C8.29351 51.3714 9.486 52.138 10.8273 52.4573C12.2389 52.8023 13.7166 52.7505 15.1024 52.3078L15.341 52.2416ZM26.6225 49.5909L26.611 52.3422L26.8123 52.3768C27.4448 52.4946 28.0801 52.5751 28.7212 52.6211C29.2819 52.6757 29.8454 52.6844 30.4089 52.6556C30.9465 52.6154 31.4784 52.5148 31.993 52.3566C32.5968 52.1841 33.1574 51.888 33.6346 51.4798C34.0655 51.1106 34.395 50.6376 34.592 50.1055C34.9348 49.2161 34.9276 48.2298 34.5719 47.3455C34.3866 46.8854 34.0927 46.477 33.7151 46.1553C33.3493 45.8282 32.9209 45.5788 32.4559 45.4221L30.3801 44.6516C30.1322 44.5458 29.931 44.3538 29.8137 44.1111C29.7684 44.0116 29.7469 43.9029 29.7509 43.7936C29.7549 43.6843 29.7843 43.5775 29.8368 43.4815C29.9434 43.3068 30.0968 43.1654 30.2795 43.0733C30.5121 42.9613 30.7619 42.8893 31.0184 42.8605C31.4582 42.7973 31.9039 42.8001 32.3409 42.8749C32.8584 42.9324 33.3701 43.0215 33.8732 43.1509L33.9825 43.1739V40.6353L33.7841 40.5921C33.2696 40.469 32.7483 40.3759 32.223 40.3133C31.5418 40.2242 30.8521 40.2213 30.1703 40.3046C29.3078 40.3823 28.4884 40.7158 27.8099 41.2534C27.3499 41.6156 27.002 42.0958 26.8007 42.6449C26.5017 43.4786 26.4989 44.3929 26.8007 45.2295C26.956 45.6464 27.2033 46.0173 27.5253 46.3249C27.8041 46.5923 28.1204 46.8223 28.4654 47.0034C28.9168 47.2449 29.3969 47.4318 29.8942 47.564C30.0581 47.6129 30.222 47.6646 30.383 47.7192L30.6274 47.8084L30.6964 47.8371C30.9379 47.9234 31.1621 48.0614 31.3461 48.2396C31.4755 48.3604 31.5761 48.5099 31.6365 48.6738C31.6763 48.8254 31.6773 48.9845 31.6394 49.1366C31.5617 49.3819 31.3901 49.5866 31.1621 49.7059C30.9144 49.8324 30.6471 49.916 30.3715 49.9531C29.9656 50.0164 29.5541 50.0366 29.1439 50.0135C28.6066 49.9715 28.0721 49.9004 27.5425 49.8008C27.2664 49.741 26.9914 49.6767 26.7174 49.6081L26.6225 49.5909ZM19.5069 52.4515H22.5256V40.4714H19.5069V52.4515ZM54.4726 44.0105C54.7933 43.7493 55.1623 43.5538 55.5585 43.4353C55.9548 43.3167 56.3705 43.2774 56.7819 43.3196C57.1934 43.3618 57.5925 43.4847 57.9564 43.6811C58.3203 43.8776 58.642 44.1439 58.903 44.4647C59.1647 44.7851 59.3607 45.1539 59.4797 45.5501C59.5987 45.9463 59.6383 46.362 59.5964 46.7736C59.5545 47.1851 59.4318 47.5843 59.2353 47.9484C59.0389 48.3124 58.7726 48.6342 58.4516 48.8951L58.4027 48.9354C57.748 49.4374 56.9224 49.6626 56.1033 49.5626C55.2843 49.4625 54.5372 49.0452 54.0225 48.4003C53.5079 47.7553 53.2667 46.9343 53.3509 46.1134C53.435 45.2926 53.8378 44.5376 54.4726 44.0105ZM50.0883 46.4658C50.1029 47.4008 50.3254 48.321 50.7395 49.1594C51.1537 49.9979 51.7493 50.7337 52.483 51.3136C53.2167 51.8935 54.0702 52.3029 54.9817 52.5121C55.8932 52.7214 56.8398 52.7252 57.753 52.5234C58.9785 52.2915 60.1044 51.6925 60.9816 50.8059C61.8587 49.9192 62.4455 48.7869 62.6642 47.559C62.8828 46.3311 62.7229 45.0657 62.2057 43.9308C61.6885 42.7959 60.8385 41.8451 59.7684 41.2045C58.817 40.6164 57.7271 40.2902 56.6091 40.2589C55.491 40.2277 54.3846 40.4926 53.4019 41.0267C52.4192 41.5608 51.5951 42.3452 51.0132 43.3004C50.4313 44.2555 50.1122 45.3475 50.0883 46.4658ZM66.0129 30.843C66.0298 31.2278 66.1945 31.5912 66.4727 31.8575C66.751 32.1238 67.1213 32.2725 67.5064 32.2725C67.8916 32.2725 68.2619 32.1238 68.5401 31.8575C68.8184 31.5912 68.9831 31.2278 69 30.843V27.5224C68.9831 27.1376 68.8184 26.7742 68.5401 26.5079C68.2619 26.2416 67.8916 26.0929 67.5064 26.0929C67.1213 26.0929 66.751 26.2416 66.4727 26.5079C66.1945 26.7742 66.0298 27.1376 66.0129 27.5224V30.843ZM57.8364 30.843C57.865 31.2203 58.0351 31.5728 58.3126 31.83C58.5901 32.0872 58.9545 32.2301 59.3328 32.2301C59.7112 32.2301 60.0755 32.0872 60.353 31.83C60.6305 31.5728 60.8006 31.2203 60.8293 30.843V23.3996C60.8056 23.0192 60.6379 22.662 60.3601 22.4009C60.0823 22.1399 59.7155 21.9945 59.3343 21.9945C58.953 21.9945 58.5862 22.1399 58.3084 22.4009C58.0306 22.662 57.8629 23.0192 57.8393 23.3996L57.8364 30.843ZM49.5391 33.8416C49.5678 34.2181 49.7375 34.5699 50.0145 34.8266C50.2914 35.0833 50.6551 35.2259 51.0327 35.2259C51.4103 35.2259 51.774 35.0833 52.0509 34.8266C52.3278 34.5699 52.4976 34.2181 52.5263 33.8416V17.7388C52.5094 17.354 52.3446 16.9906 52.0664 16.7242C51.7881 16.4579 51.4178 16.3093 51.0327 16.3093C50.6475 16.3093 50.2772 16.4579 49.999 16.7242C49.7207 16.9906 49.556 17.354 49.5391 17.7388V33.8416ZM41.3799 30.843C41.4035 31.2235 41.5713 31.5806 41.849 31.8417C42.1268 32.1028 42.4937 32.2481 42.8749 32.2481C43.2561 32.2481 43.6229 32.1028 43.9007 31.8417C44.1785 31.5806 44.3463 31.2235 44.3699 30.843V23.3996C44.353 23.0148 44.1883 22.6514 43.91 22.3851C43.6318 22.1188 43.2615 21.9702 42.8763 21.9702C42.4912 21.9702 42.1209 22.1188 41.8426 22.3851C41.5644 22.6514 41.3996 23.0148 41.3828 23.3996V30.843M33.0453 30.843C33.0817 31.2138 33.2548 31.5579 33.5308 31.8081C33.8069 32.0584 34.1662 32.197 34.5388 32.197C34.9114 32.197 35.2707 32.0584 35.5468 31.8081C35.8229 31.5579 35.9959 31.2138 36.0324 30.843V27.5224C36.0155 27.1376 35.8508 26.7742 35.5725 26.5079C35.2943 26.2416 34.924 26.0929 34.5388 26.0929C34.1537 26.0929 33.7834 26.2416 33.5051 26.5079C33.2269 26.7742 33.0621 27.1376 33.0453 27.5224V30.843ZM24.794 30.843C24.8109 31.2278 24.9756 31.5912 25.2539 31.8575C25.5321 32.1238 25.9024 32.2725 26.2876 32.2725C26.6727 32.2725 27.043 32.1238 27.3213 31.8575C27.5995 31.5912 27.7642 31.2278 27.7811 30.843V23.3996C27.7642 23.0148 27.5995 22.6514 27.3213 22.3851C27.043 22.1188 26.6727 21.9702 26.2876 21.9702C25.9024 21.9702 25.5321 22.1188 25.2539 22.3851C24.9756 22.6514 24.8109 23.0148 24.794 23.3996V30.843ZM16.4939 33.8416C16.5108 34.2264 16.6755 34.5898 16.9537 34.8561C17.232 35.1224 17.6023 35.2711 17.9874 35.2711C18.3726 35.2711 18.7429 35.1224 19.0211 34.8561C19.2994 34.5898 19.4641 34.2264 19.481 33.8416V17.7388C19.4641 17.354 19.2994 16.9906 19.0211 16.7242C18.7429 16.4579 18.3726 16.3093 17.9874 16.3093C17.6023 16.3093 17.232 16.4579 16.9537 16.7242C16.6755 16.9906 16.5108 17.354 16.4939 17.7388V33.8416ZM8.2685 30.843C8.30132 31.2169 8.47303 31.5649 8.74977 31.8184C9.02651 32.0719 9.3882 32.2125 9.7635 32.2125C10.1388 32.2125 10.5005 32.0719 10.7772 31.8184C11.054 31.5649 11.2257 31.2169 11.2585 30.843V23.3996C11.2416 23.0148 11.0769 22.6514 10.7986 22.3851C10.5204 22.1188 10.1501 21.9702 9.76494 21.9702C9.37979 21.9702 9.00949 22.1188 8.73125 22.3851C8.453 22.6514 8.28826 23.0148 8.27138 23.3996V30.843M0 30.843C0.0286326 31.2195 0.198412 31.5713 0.475353 31.828C0.752295 32.0847 1.11596 32.2273 1.49356 32.2273C1.87116 32.2273 2.23483 32.0847 2.51177 31.828C2.78871 31.5713 2.95849 31.2195 2.98713 30.843V27.5224C2.97024 27.1376 2.8055 26.7742 2.52725 26.5079C2.24901 26.2416 1.87871 26.0929 1.49356 26.0929C1.10841 26.0929 0.73812 26.2416 0.459871 26.5079C0.181622 26.7742 0.0168859 27.1376 0 27.5224L0 30.843Z" fill="#91939F"/>
</svg>
