<svg width="179" height="31" viewBox="0 0 179 31" fill="none" xmlns="http://www.w3.org/2000/svg">
<g clip-path="url(#clip0_558_44)">
<path d="M111.12 9.30742V11.0405C111.12 11.3633 110.856 11.6222 110.535 11.6101C110.045 11.5911 109.361 11.567 108.942 11.5601C106.6 11.5601 105.307 12.9634 105.307 15.5129V21.8307C105.307 22.1448 105.053 22.4003 104.74 22.4003H102.685C102.373 22.4003 102.12 22.1448 102.12 21.8307V9.14516C102.12 8.831 102.374 8.57553 102.685 8.57553H104.642C104.955 8.57553 105.21 8.82928 105.21 9.14516V9.953C106.146 8.97773 107.639 8.45298 109.485 8.45298C109.79 8.45298 110.177 8.49613 110.447 8.53411C110.832 8.58762 111.12 8.91904 111.12 9.30742ZM90.0971 14.6499C89.9854 14.5083 89.9992 14.3029 90.128 14.1752L95.1833 9.18659C95.4101 8.96219 95.252 8.57726 94.9341 8.57726H91.9924C91.8498 8.57726 91.714 8.63077 91.6092 8.72744L85.9165 13.9767C85.6897 14.1873 85.322 14.025 85.322 13.7143V9.14516C85.322 8.831 85.0677 8.57553 84.7549 8.57553H82.7016C82.3888 8.57553 82.1345 8.82928 82.1345 9.14516V21.8289C82.1345 22.1431 82.3888 22.3986 82.7016 22.3986H84.7515C85.0659 22.3986 85.3203 22.1414 85.3185 21.8255L85.2996 18.8824C85.2979 18.7236 85.3649 18.57 85.4818 18.4612L87.2533 16.811C87.4028 16.6712 87.6417 16.6885 87.7705 16.849L92.0491 22.1863C92.1574 22.3209 92.3189 22.3986 92.4907 22.3986H95.4427C95.7383 22.3986 95.9032 22.0568 95.7211 21.822L90.0971 14.6499ZM73.3265 8.57726H71.2715C70.9587 8.57726 70.7044 8.831 70.7044 9.14689V21.8307C70.7044 22.1448 70.9587 22.4003 71.2715 22.4003H73.3265C73.6393 22.4003 73.8936 22.1448 73.8936 21.8307V9.14516C73.8936 8.831 73.6393 8.57726 73.3265 8.57726ZM146.943 8.57726H134.537C134.226 8.57726 133.97 8.83273 133.97 9.14689V10.9921C133.97 11.3063 134.225 11.5618 134.537 11.5618H138.756C138.952 11.5618 139.11 11.7206 139.11 11.9174V21.8307C139.11 22.1448 139.364 22.4003 139.677 22.4003H141.804C142.117 22.4003 142.371 22.1448 142.371 21.8307V11.9156C142.371 11.7189 142.529 11.5601 142.725 11.5601H146.943C147.256 11.5601 147.511 11.3046 147.511 10.9904V9.14516C147.511 8.831 147.256 8.57726 146.943 8.57726ZM129.68 15.4871C129.68 19.5763 126.685 22.5453 122.557 22.5453C118.416 22.5453 115.411 19.5763 115.411 15.4871C115.411 11.4116 118.416 8.4547 122.557 8.4547C126.685 8.4547 129.68 11.4116 129.68 15.4871ZM126.468 15.4871C126.468 13.0204 124.896 11.3633 122.557 11.3633C120.241 11.3633 118.624 13.0584 118.624 15.4871C118.624 17.9296 120.241 19.635 122.557 19.635C124.86 19.6367 126.468 17.9296 126.468 15.4871ZM156.528 8.57726H154.473C154.162 8.57726 153.906 8.83273 153.906 9.14689V21.8307C153.906 22.1448 154.16 22.4003 154.473 22.4003H156.528C156.841 22.4003 157.095 22.1448 157.095 21.8307V9.14516C157.095 8.831 156.841 8.57726 156.528 8.57726ZM56.7519 8.4547C54.8995 8.4547 53.2328 9.09683 52.0953 10.2309C51.9424 10.3828 51.707 10.3707 51.5678 10.2085C50.5952 9.07439 49.1003 8.4547 47.3012 8.4547C45.6517 8.4547 44.241 8.94666 43.2684 9.85634V9.14516C43.2684 8.831 43.0141 8.57553 42.7014 8.57553H40.7442C40.4315 8.57553 40.1772 8.82928 40.1772 9.14516V21.8289C40.1772 22.1431 40.4315 22.3986 40.7442 22.3986H42.7993C43.112 22.3986 43.3646 22.1431 43.3646 21.8289V15.292C43.3646 12.8253 44.6224 11.4116 46.8132 11.4116C48.7446 11.4116 49.724 12.544 49.724 14.7776V21.8289C49.724 22.1431 49.9783 22.3986 50.2911 22.3986H52.3462C52.6589 22.3986 52.9132 22.1431 52.9132 21.8289V15.292C52.9132 12.8253 54.1693 11.4116 56.3601 11.4116C58.2932 11.4116 59.2726 12.544 59.2726 14.7776V21.8289C59.2726 22.1431 59.5269 22.3986 59.8396 22.3986H61.8947C62.2075 22.3986 62.4618 22.1431 62.4618 21.8289V14.5101C62.4635 10.6625 60.3809 8.4547 56.7519 8.4547ZM178.924 21.822L173.299 14.6499C173.187 14.5066 173.201 14.3029 173.33 14.1752L178.385 9.18487C178.612 8.96219 178.454 8.57553 178.136 8.57553H175.194C175.053 8.57553 174.916 8.62904 174.811 8.72571L169.118 13.9749C168.891 14.1838 168.524 14.0233 168.524 13.7126V9.14516C168.524 8.831 168.269 8.57553 167.957 8.57553H165.901C165.589 8.57553 165.334 8.831 165.334 9.14516V21.8289C165.334 22.1431 165.589 22.3986 165.901 22.3986H167.951C168.266 22.3986 168.52 22.1414 168.518 21.8255L168.5 18.8841C168.5 18.7236 168.565 18.5717 168.682 18.4629L170.455 16.811C170.604 16.6712 170.843 16.6885 170.972 16.849L175.251 22.1845C175.359 22.3192 175.52 22.3968 175.692 22.3968H178.644C178.942 22.3986 179.107 22.0568 178.924 21.822ZM28.6732 7.99382C28.6354 7.90751 28.5959 7.82466 28.5512 7.75043C28.5065 7.67621 28.4533 7.60198 28.3931 7.52948C28.0821 7.14628 27.5752 6.76998 26.9274 6.41266L21.7158 3.54379L16.5042 0.671474C15.8564 0.31416 15.2619 0.0845815 14.7584 0.0189877C14.6622 0.00690462 14.5677 0 14.4784 0C13.9216 0 13.224 0.24684 12.4508 0.671474L7.23918 3.54207L2.02759 6.41094C1.37979 6.76825 0.872894 7.14283 0.561883 7.52776C0.501742 7.60198 0.448475 7.67621 0.403799 7.74871C0.359124 7.82293 0.319603 7.90579 0.2818 7.99209C0.0893514 8.44262 0 9.04677 0 9.75968V21.2386C0 22.0896 0.125436 22.7887 0.403799 23.2496C0.682163 23.7105 1.25436 24.1627 2.02759 24.5873L7.23918 27.4579L12.4508 30.3268C13.0986 30.6824 13.6931 30.9137 14.1966 30.9793C14.2928 30.9914 14.3873 31 14.4766 31C14.566 31 14.6605 30.9931 14.7567 30.9793C15.2602 30.9137 15.8547 30.6841 16.5025 30.3268L26.9257 24.5873C27.6972 24.1627 28.2711 23.7105 28.5495 23.2496C28.5942 23.1753 28.6337 23.0925 28.6715 23.0062C28.8639 22.5574 28.9533 21.9515 28.9533 21.2386V9.75968C28.955 9.04677 28.8656 8.44262 28.6732 7.99382ZM8.34748 21.4613C8.34748 21.7219 8.06912 21.8894 7.84058 21.7634L5.97623 20.7363C5.53807 20.4946 5.26486 20.032 5.26486 19.5297V13.9818C5.26486 13.7212 5.54322 13.5555 5.77176 13.6798L7.99351 14.9019C8.21345 15.0227 8.3492 15.254 8.3492 15.506V21.4613H8.34748ZM23.6901 19.5297C23.6901 20.032 23.4169 20.4964 22.9788 20.738L21.1144 21.7634C20.8859 21.8894 20.6075 21.7236 20.6075 21.4613V14.1113C20.6075 13.8507 20.3292 13.6832 20.1006 13.8092L16.7328 15.6631C16.2946 15.9048 16.0214 16.3674 16.0214 16.8697V24.161C16.0214 24.413 15.8856 24.6443 15.6657 24.7651L15.1365 25.0551C14.7258 25.2813 14.2292 25.2813 13.8185 25.0551L13.2927 24.7651C13.0728 24.6443 12.937 24.413 12.937 24.161V16.8714C12.937 16.3691 12.6638 15.9065 12.2257 15.6648L5.26486 11.8328V11.4703C5.26486 10.968 5.53807 10.5054 5.97623 10.2637L6.74431 9.83908C7.15498 9.61295 7.65157 9.61295 8.06052 9.83908L13.8185 13.0083C14.2292 13.2344 14.7258 13.2344 15.1347 13.0083L17.7947 11.5428C18.0318 11.4116 18.0318 11.0698 17.7947 10.9386L11.8184 7.64859C11.5813 7.5174 11.5813 7.17562 11.8184 7.04444L13.8185 5.94315C14.2292 5.71702 14.7258 5.71702 15.1365 5.94315L22.9788 10.2603C23.4187 10.5019 23.6919 10.9645 23.6919 11.4686V19.5297H23.6901Z" fill="#91939F"/>
</g>
<defs>
<clipPath id="clip0_558_44">
<rect width="179" height="31" fill="white"/>
</clipPath>
</defs>
</svg>
