<svg width="21" height="27" viewBox="0 0 21 27" fill="none" xmlns="http://www.w3.org/2000/svg">
<path d="M2.424 27C1.752 27 1.18 26.764 0.708 26.292C0.236 25.82 0 25.2485 0 24.5775V11.4225C0 10.7525 0.236 10.181 0.708 9.708C1.18 9.236 1.752 9 2.424 9H4.5V6C4.5 4.329 5.0825 2.9115 6.2475 1.7475C7.4115 0.5825 8.829 0 10.5 0C12.171 0 13.589 0.5825 14.754 1.7475C15.919 2.9125 16.501 4.33 16.5 6V9H18.5775C19.2475 9 19.819 9.236 20.292 9.708C20.764 10.18 21 10.752 21 11.424V24.5775C21 25.2475 20.764 25.819 20.292 26.292C19.82 26.764 19.2485 27 18.5775 27H2.424ZM2.424 25.5H18.5775C18.8465 25.5 19.0675 25.4135 19.2405 25.2405C19.4135 25.0675 19.5 24.8465 19.5 24.5775V11.4225C19.5 11.1535 19.4135 10.9325 19.2405 10.7595C19.0675 10.5865 18.8465 10.5 18.5775 10.5H2.4225C2.1535 10.5 1.9325 10.5865 1.7595 10.7595C1.5865 10.9325 1.5 11.154 1.5 11.424V24.5775C1.5 24.8465 1.5865 25.0675 1.7595 25.2405C1.9325 25.4135 2.154 25.5 2.424 25.5ZM10.5 20.25C11.133 20.25 11.666 20.033 12.099 19.599C12.533 19.166 12.75 18.633 12.75 18C12.75 17.367 12.533 16.834 12.099 16.401C11.665 15.968 11.132 15.751 10.5 15.75C9.868 15.749 9.335 15.966 8.901 16.401C8.467 16.834 8.25 17.367 8.25 18C8.25 18.633 8.467 19.166 8.901 19.599C9.334 20.033 9.867 20.25 10.5 20.25ZM6 9H15V6C15 4.75 14.5625 3.6875 13.6875 2.8125C12.8125 1.9375 11.75 1.5 10.5 1.5C9.25 1.5 8.1875 1.9375 7.3125 2.8125C6.4375 3.6875 6 4.75 6 6V9Z" fill="white"/>
</svg>
