<svg width="30" height="29" viewBox="0 0 30 29" fill="none" xmlns="http://www.w3.org/2000/svg">
<path d="M2.18133 12.8585C2.18133 12.6408 2.26753 12.4321 2.42098 12.2781C2.57443 12.1242 2.78255 12.0377 2.99956 12.0377H5.18153C5.39854 12.0377 5.60666 12.1242 5.76011 12.2781C5.91356 12.4321 5.99977 12.6408 5.99977 12.8585C5.99977 13.0762 5.91356 13.2849 5.76011 13.4389C5.60666 13.5928 5.39854 13.6792 5.18153 13.6792H2.99956C2.78255 13.6792 2.57443 13.5928 2.42098 13.4389C2.26753 13.2849 2.18133 13.0762 2.18133 12.8585ZM7.47805 6.47439C7.55376 6.55166 7.64397 6.61314 7.74348 6.65527C7.84299 6.6974 7.94984 6.71935 8.05785 6.71985C8.16586 6.72035 8.2729 6.6994 8.3728 6.6582C8.47269 6.617 8.56347 6.55637 8.63989 6.47981C8.71631 6.40324 8.77687 6.31226 8.81806 6.2121C8.85925 6.11194 8.88026 6.0046 8.87988 5.89625C8.87951 5.78791 8.85775 5.68071 8.81587 5.58085C8.77399 5.48098 8.71281 5.39042 8.63586 5.31439L7.09075 3.7659C6.93473 3.62714 6.73179 3.55337 6.52337 3.55964C6.31495 3.56592 6.11678 3.65177 5.96934 3.79967C5.8219 3.94756 5.73631 4.14634 5.73005 4.3554C5.7238 4.56446 5.79734 4.76803 5.93567 4.92453L7.47805 6.47439ZM15.0004 3.83019C15.2174 3.83019 15.4255 3.74372 15.579 3.5898C15.7324 3.43587 15.8186 3.22711 15.8186 3.00943V0.820755C15.8186 0.603077 15.7324 0.394315 15.579 0.240394C15.4255 0.0864721 15.2174 0 15.0004 0C14.7834 0 14.5753 0.0864721 14.4218 0.240394C14.2684 0.394315 14.1821 0.603077 14.1821 0.820755V3.00943C14.1821 3.22711 14.2684 3.43587 14.4218 3.5898C14.5753 3.74372 14.7834 3.83019 15.0004 3.83019ZM21.9431 6.71514C22.0508 6.71523 22.1574 6.694 22.2568 6.65269C22.3563 6.61138 22.4466 6.55079 22.5227 6.47439L24.0651 4.92453C24.2034 4.76803 24.277 4.56446 24.2707 4.3554C24.2645 4.14634 24.1789 3.94756 24.0314 3.79967C23.884 3.65177 23.6858 3.56592 23.4774 3.55964C23.269 3.55337 23.066 3.62714 22.91 3.7659L21.3649 5.31439C21.2506 5.42917 21.1728 5.57535 21.1413 5.73446C21.1098 5.89358 21.126 6.05849 21.1879 6.20838C21.2497 6.35826 21.3545 6.48639 21.4889 6.57659C21.6233 6.66678 21.7814 6.715 21.9431 6.71514ZM24.001 12.8585C24.001 13.0762 24.0872 13.2849 24.2407 13.4389C24.3941 13.5928 24.6022 13.6792 24.8192 13.6792H27.0012C27.2182 13.6792 27.4263 13.5928 27.5798 13.4389C27.7332 13.2849 27.8194 13.0762 27.8194 12.8585C27.8194 12.6408 27.7332 12.4321 27.5798 12.2781C27.4263 12.1242 27.2182 12.0377 27.0012 12.0377H24.8192C24.6022 12.0377 24.3941 12.1242 24.2407 12.2781C24.0872 12.4321 24.001 12.6408 24.001 12.8585ZM9.54547 13.6792C9.76248 13.6792 9.9706 13.5928 10.124 13.4389C10.2775 13.2849 10.3637 13.0762 10.3637 12.8585C10.3637 11.625 10.8522 10.442 11.7218 9.56978C12.5913 8.69756 13.7707 8.20755 15.0004 8.20755C16.2301 8.20755 17.4095 8.69756 18.279 9.56978C19.1486 10.442 19.6371 11.625 19.6371 12.8585C19.6371 13.0762 19.7233 13.2849 19.8767 13.4389C20.0302 13.5928 20.2383 13.6792 20.4553 13.6792C20.6723 13.6792 20.8804 13.5928 21.0339 13.4389C21.1873 13.2849 21.2735 13.0762 21.2735 12.8585C21.2735 11.1896 20.6126 9.58912 19.4362 8.40905C18.2597 7.22899 16.6641 6.56604 15.0004 6.56604C13.3366 6.56604 11.741 7.22899 10.5646 8.40905C9.38815 9.58912 8.72723 11.1896 8.72723 12.8585C8.72723 13.0762 8.81344 13.2849 8.96689 13.4389C9.12034 13.5928 9.32846 13.6792 9.54547 13.6792ZM29.8896 28.5896C29.818 28.7141 29.715 28.8175 29.591 28.8895C29.4671 28.9615 29.3264 28.9996 29.1832 29H0.817597C0.674686 28.9999 0.534297 28.9622 0.410403 28.8908C0.28651 28.8193 0.183433 28.7166 0.111433 28.5928C0.0394328 28.4689 0.00102056 28.3283 2.00574e-05 28.185C-0.000980447 28.0416 0.0354656 27.9005 0.10573 27.7757L5.65475 17.9267C5.72608 17.7999 5.82972 17.6945 5.95505 17.6212C6.08038 17.5479 6.22289 17.5093 6.36798 17.5094H23.6328C23.7779 17.5093 23.9204 17.5479 24.0457 17.6212C24.171 17.6945 24.2747 17.7999 24.346 17.9267L29.895 27.7757C29.9648 27.9001 30.0009 28.0407 30 28.1834C29.999 28.3261 29.961 28.4661 29.8896 28.5896ZM23.1555 19.1509H19.337L19.9303 21.8868H24.7033L23.1555 19.1509ZM18.2542 21.8868L17.661 19.1509H12.3425L11.7493 21.8868H18.2542ZM11.3906 23.5283L10.5601 27.3585H19.4407L18.6102 23.5283H11.3906ZM5.3029 21.8868H10.076L10.6692 19.1509H6.85074L5.3029 21.8868ZM2.21951 27.3585H8.88542L9.71593 23.5283H4.3783L2.21951 27.3585ZM27.7813 27.3585L25.6225 23.5283H20.2848L21.1153 27.3585H27.7813Z" fill="white"/>
</svg>
