<svg width="34" height="23" viewBox="0 0 34 23" fill="none" xmlns="http://www.w3.org/2000/svg">
<path d="M33.8007 7.86282L30.3585 1.03623C30.2477 0.816279 30.0942 0.620118 29.9069 0.458946C29.7195 0.297774 29.502 0.174748 29.2667 0.0968906C29.0314 0.0190335 28.7829 -0.0121288 28.5354 0.00518209C28.288 0.022493 28.0464 0.0879382 27.8244 0.197782L24.3755 1.90677L17.2065 0.0266156C17.0711 -0.00815141 16.9289 -0.00815141 16.7936 0.0266156L9.62448 1.90677L6.1769 0.197782C5.9549 0.0877301 5.71318 0.0221191 5.46557 0.00469952C5.21797 -0.0127201 4.96932 0.0183936 4.73385 0.0962611C4.49839 0.174129 4.28071 0.297223 4.09328 0.458509C3.90584 0.619795 3.75232 0.816109 3.64148 1.03623L0.199304 7.86282C-0.0246401 8.30686 -0.0614593 8.82087 0.0969432 9.29182C0.255346 9.76276 0.596 10.1521 1.04399 10.3742L4.70747 12.1901L12.2112 17.5016C12.2925 17.5597 12.384 17.6023 12.481 17.6273L21.1169 19.7669C21.1826 19.7832 21.2501 19.7913 21.3179 19.791C21.5326 19.7908 21.7383 19.7061 21.89 19.5556L29.3533 12.1594L32.956 10.3742C33.404 10.1521 33.7447 9.76276 33.9031 9.29182C34.0615 8.82087 34.0246 8.30686 33.8007 7.86282ZM26.6492 12.5645L21.8185 8.72935C21.6627 8.60578 21.4664 8.54359 21.2672 8.55469C21.0679 8.5658 20.8799 8.64942 20.739 8.78953C18.2225 11.3022 15.4091 10.9853 13.6158 9.84862C13.5806 9.82707 13.5508 9.79777 13.5288 9.76299C13.5068 9.7282 13.4932 9.68887 13.489 9.64803C13.4842 9.61059 13.4879 9.57255 13.4998 9.5367C13.5117 9.50085 13.5315 9.46807 13.5578 9.44076L19.4868 3.74413H24.0557L27.8892 11.3423L26.6492 12.5645ZM1.63231 8.78418C1.60999 8.71714 1.61533 8.64407 1.64715 8.58092L5.09068 1.75299C5.11331 1.70847 5.14804 1.67112 5.19096 1.64512C5.23388 1.61913 5.28327 1.60554 5.33356 1.60589C5.37524 1.60594 5.41635 1.61555 5.45365 1.63397L8.45055 3.11831L4.76414 10.4303L1.76724 8.94598C1.7349 8.92942 1.70628 8.90655 1.68309 8.87875C1.6599 8.85094 1.64263 8.81877 1.63231 8.78418ZM21.0696 18.1007L13.0275 16.1082L6.15936 11.246L10.0968 3.44325L17 1.63264L18.997 2.15683C18.8443 2.18612 18.7036 2.2591 18.5922 2.36678L12.4257 8.29742C12.2255 8.49572 12.0728 8.73608 11.9789 9.00073C11.8851 9.26538 11.8524 9.54755 11.8833 9.82639C11.9143 10.1052 12.0081 10.3736 12.1578 10.6117C12.3075 10.8498 12.5093 11.0515 12.7482 11.2019C15.4766 12.9296 18.7865 12.6047 21.357 10.4143L25.5009 13.7065L21.0696 18.1007ZM32.3677 8.78418C32.3566 8.81755 32.339 8.84843 32.3158 8.87504C32.2926 8.90166 32.2644 8.92349 32.2328 8.93929L29.2359 10.4303L25.5495 3.11831L28.5463 1.63397C28.5781 1.61818 28.6127 1.60875 28.6481 1.60622C28.6835 1.6037 28.7191 1.60813 28.7528 1.61926C28.7865 1.63027 28.8176 1.64774 28.8445 1.67069C28.8713 1.69363 28.8934 1.7216 28.9093 1.75299L32.3528 8.58092C32.3847 8.64407 32.39 8.71714 32.3677 8.78418ZM17.255 22.3919C17.2031 22.5983 17.0706 22.7757 16.8866 22.8853C16.7027 22.9949 16.4823 23.0276 16.2741 22.9763L10.6432 21.5815C10.5461 21.5568 10.4545 21.5142 10.3734 21.4558L6.81514 18.9405C6.64032 18.8164 6.52242 18.6285 6.48737 18.4182C6.45233 18.2079 6.503 17.9925 6.62826 17.8192C6.75351 17.646 6.94308 17.5291 7.15527 17.4944C7.36745 17.4597 7.58487 17.5099 7.75968 17.634L11.1857 20.0584L16.6654 21.4157C16.7688 21.4413 16.8661 21.4869 16.9517 21.5499C17.0373 21.6129 17.1095 21.692 17.1641 21.7827C17.2188 21.8734 17.2548 21.9739 17.2702 22.0784C17.2856 22.183 17.28 22.2895 17.2537 22.3919H17.255Z" fill="white"/>
</svg>
