<svg width="34" height="28" viewBox="0 0 34 28" fill="none" xmlns="http://www.w3.org/2000/svg">
<path d="M1.2813 7.79236L15.1652 0.851301C15.2986 0.78468 15.4457 0.75 15.5949 0.75C15.744 0.75 15.8911 0.78468 16.0246 0.851301L29.9084 7.79397C30.0681 7.87392 30.2024 7.99673 30.2962 8.14865C30.39 8.30058 30.4397 8.47562 30.4397 8.65418C30.4397 8.83275 30.39 9.00779 30.2962 9.15972C30.2024 9.31164 30.0681 9.43445 29.9084 9.5144L16.0246 16.4555C15.8911 16.5221 15.744 16.5568 15.5949 16.5568C15.4457 16.5568 15.2986 16.5221 15.1652 16.4555L1.2813 9.5128C1.12163 9.43285 0.987367 9.31004 0.893533 9.15811C0.799698 9.00619 0.75 8.83115 0.75 8.65258C0.75 8.47401 0.799698 8.29897 0.893533 8.14705C0.987367 7.99512 1.12163 7.87231 1.2813 7.79236Z" stroke="white" stroke-width="1.5" stroke-linecap="round" stroke-linejoin="round"/>
<path d="M33.2323 15.0673V9.45544L30.0255 7.85205M4.37109 11.0588V19.7364C4.37098 20.343 4.54296 20.9373 4.86708 21.4502C5.1912 21.963 5.65415 22.3734 6.20218 22.6337L14.2192 26.4401C14.6491 26.6443 15.119 26.7502 15.5949 26.7502C16.0708 26.7502 16.5407 26.6443 16.9706 26.4401L24.9876 22.6337C25.5357 22.3734 25.9986 21.963 26.3227 21.4502C26.6468 20.9373 26.8188 20.343 26.8187 19.7364V11.0588" stroke="white" stroke-width="1.5" stroke-linecap="round" stroke-linejoin="round"/>
</svg>
