<svg width="53" height="53" viewBox="0 0 53 53" fill="none" xmlns="http://www.w3.org/2000/svg">
<path d="M26.9997 17.3999V36.5999M31.7997 22.9999C31.7997 20.7919 29.6509 18.9999 26.9997 18.9999C24.3485 18.9999 22.1997 20.7919 22.1997 22.9999C22.1997 25.2079 24.3485 26.9999 26.9997 26.9999C29.6509 26.9999 31.7997 28.7919 31.7997 30.9999C31.7997 33.2079 29.6509 34.9999 26.9997 34.9999C24.3485 34.9999 22.1997 33.2079 22.1997 30.9999" stroke="white" stroke-width="1.5" stroke-linecap="round"/>
<path d="M19 13.1408C21.4311 11.734 24.1912 10.9954 27 11C35.8368 11 43 18.1632 43 27C43 35.8368 35.8368 43 27 43C18.1632 43 11 35.8368 11 27C11 24.0864 11.7792 21.352 13.1408 19" stroke="white" stroke-width="1.5" stroke-linecap="round"/>
</svg>
