<svg width="53" height="53" viewBox="0 0 53 53" fill="none" xmlns="http://www.w3.org/2000/svg">
<path d="M15.8288 29.2C14.6283 27.234 13.9953 24.974 14 22.6704C14 15.672 19.7312 10 26.8 10C33.8688 10 39.6 15.672 39.6 22.6704C39.6047 24.974 38.9718 27.234 37.7712 29.2" stroke="white" stroke-width="1.5" stroke-linecap="round"/>
<path d="M31.5998 37.2001L31.3918 38.2353C31.1678 39.3665 31.0542 39.9313 30.7998 40.3793C30.4078 41.0698 29.7731 41.5899 29.019 41.8385C28.531 42.0001 27.9518 42.0001 26.7998 42.0001C25.6478 42.0001 25.0686 42.0001 24.5806 41.8401C23.8263 41.5911 23.1915 41.0704 22.7998 40.3793C22.5454 39.9313 22.4318 39.3665 22.2078 38.2353L21.9998 37.2001M19.4126 34.1569C19.2654 33.7153 19.1918 33.4929 19.1998 33.3137C19.2089 33.1285 19.2714 32.9498 19.3799 32.7993C19.4883 32.6488 19.6381 32.5329 19.811 32.4657C19.9774 32.4001 20.211 32.4001 20.675 32.4001H32.9246C33.3902 32.4001 33.6222 32.4001 33.7886 32.4641C33.9618 32.5314 34.1117 32.6475 34.2202 32.7983C34.3287 32.9491 34.3911 33.1282 34.3998 33.3137C34.4078 33.4929 34.3342 33.7137 34.187 34.1569C33.915 34.9745 33.779 35.3841 33.5694 35.7153C33.131 36.4075 32.4438 36.9052 31.6494 37.1057C31.2686 37.2001 30.8398 37.2001 29.9806 37.2001H23.619C22.7598 37.2001 22.3294 37.2001 21.9502 37.1041C21.1561 36.904 20.4689 36.4069 20.0302 35.7153C19.8206 35.3841 19.6846 34.9745 19.4126 34.1569Z" stroke="white" stroke-width="1.5"/>
<path d="M20.8001 22.4L24.4001 26V32.4M32.8001 22.4L29.2001 26V32.4M20.8001 23.6C21.1184 23.6 21.4236 23.4735 21.6486 23.2485C21.8737 23.0234 22.0001 22.7182 22.0001 22.4C22.0001 22.0817 21.8737 21.7765 21.6486 21.5514C21.4236 21.3264 21.1184 21.2 20.8001 21.2C20.4818 21.2 20.1766 21.3264 19.9516 21.5514C19.7265 21.7765 19.6001 22.0817 19.6001 22.4C19.6001 22.7182 19.7265 23.0234 19.9516 23.2485C20.1766 23.4735 20.4818 23.6 20.8001 23.6ZM32.8001 23.6C32.4818 23.6 32.1766 23.4735 31.9516 23.2485C31.7265 23.0234 31.6001 22.7182 31.6001 22.4C31.6001 22.0817 31.7265 21.7765 31.9516 21.5514C32.1766 21.3264 32.4818 21.2 32.8001 21.2C33.1184 21.2 33.4236 21.3264 33.6486 21.5514C33.8737 21.7765 34.0001 22.0817 34.0001 22.4C34.0001 22.7182 33.8737 23.0234 33.6486 23.2485C33.4236 23.4735 33.1184 23.6 32.8001 23.6Z" stroke="white" stroke-width="1.5" stroke-linecap="round" stroke-linejoin="round"/>
</svg>
