<svg width="53" height="53" viewBox="0 0 53 53" fill="none" xmlns="http://www.w3.org/2000/svg">
<path d="M25.1577 13.7625C25.7058 13.4099 26.3459 13.2221 27 13.2221C27.6542 13.2221 28.2942 13.4099 28.8423 13.7625L41.815 22.1119L28.8423 30.4604C28.2942 30.8131 27.6542 31.0008 27 31.0008C26.3459 31.0008 25.7058 30.8131 25.1577 30.4604L12.186 22.1119L25.1577 13.7625ZM30.0717 11.9012C29.1581 11.3131 28.091 11 27.0005 11C25.9099 11 24.8429 11.3131 23.9292 11.9012L9.5445 21.159C9.37834 21.2579 9.24089 21.3975 9.14548 21.5643C9.05007 21.7311 8.99996 21.9194 9 22.111V33.8888C9 34.1835 9.11853 34.4661 9.32951 34.6745C9.54048 34.8829 9.82663 35 10.125 35C10.4234 35 10.7095 34.8829 10.9205 34.6745C11.1315 34.4661 11.25 34.1835 11.25 33.8888V24.1617L15.3 26.7688V37.4444C15.3 37.5155 15.3015 37.586 15.3045 37.656C15.3144 37.9386 15.435 38.2071 15.6393 38.4062C18.6667 41.3542 22.7486 43.0048 27 43C31.4254 43 35.4385 41.2462 38.3608 38.4062C38.5654 38.2076 38.6855 37.9392 38.6965 37.656C38.6989 37.5854 38.7001 37.5149 38.7001 37.4444V26.7688L44.4889 23.0426C44.6458 22.9417 44.7747 22.8036 44.864 22.641C44.9533 22.4784 45 22.2964 45 22.1115C45 21.9265 44.9533 21.7445 44.864 21.5819C44.7747 21.4193 44.6458 21.2813 44.4889 21.1803L30.0717 11.9012ZM36.4501 28.2168V37.1351C33.8774 39.4821 30.5023 40.7831 27 40.7778C23.4978 40.7831 20.1227 39.4821 17.55 37.1351V28.2168L23.9292 32.3226C24.8428 32.9105 25.9097 33.2235 27 33.2235C28.0904 33.2235 29.1573 32.9105 30.0708 32.3226L36.4501 28.2168Z" fill="white"/>
</svg>
