<svg width="53" height="53" viewBox="0 0 53 53" fill="none" xmlns="http://www.w3.org/2000/svg">
<path d="M26.5053 43C24.2938 43 22.2138 42.5804 20.2653 41.7413C18.3181 40.901 16.6239 39.7609 15.1827 38.3209C13.7415 36.8809 12.6007 35.1884 11.7604 33.2436C10.9201 31.2987 10.5 29.2193 10.5 27.0053C10.5 24.7914 10.9201 22.7114 11.7604 20.7653C12.5996 18.8181 13.7379 17.1239 15.1756 15.6827C16.6132 14.2415 18.3062 13.1007 20.2547 12.2604C22.2031 11.4201 24.2831 11 26.4947 11C28.7062 11 30.7862 11.4201 32.7347 12.2604C34.6819 13.0996 36.3761 14.2385 37.8173 15.6773C39.2585 17.1161 40.3993 18.8092 41.2396 20.7564C42.0799 22.7037 42.5 24.7831 42.5 26.9947C42.5 29.2062 42.0804 31.2862 41.2413 33.2347C40.4022 35.1831 39.2621 36.8773 37.8209 38.3173C36.3797 39.7573 34.6873 40.8981 32.7436 41.7396C30.7999 42.581 28.7204 43.0012 26.5053 43ZM26.5 41.2222C30.4704 41.2222 33.8333 39.8444 36.5889 37.0889C39.3444 34.3333 40.7222 30.9704 40.7222 27C40.7222 26.7926 40.7204 26.5834 40.7169 26.3724C40.7133 26.1615 40.7003 25.9594 40.6778 25.7662C40.5984 26.5567 40.2843 27.211 39.7356 27.7289C39.1856 28.2456 38.5119 28.504 37.7142 28.504H33.2004C32.3732 28.504 31.665 28.2101 31.076 27.6222C30.487 27.0344 30.1924 26.3274 30.1924 25.5013V23.9991H24.1747V20.9947C24.1747 20.1686 24.4698 19.4587 25.06 18.8649C25.649 18.2711 26.3572 17.9742 27.1844 17.9742H28.6884V16.6053C28.6884 15.7425 28.9705 15.0634 29.5347 14.568C30.0988 14.0726 30.7726 13.787 31.556 13.7111C30.7584 13.403 29.9406 13.1707 29.1027 13.0142C28.2647 12.8578 27.3972 12.779 26.5 12.7778C22.5296 12.7778 19.1667 14.1556 16.4111 16.9111C13.6556 19.6667 12.2778 23.0296 12.2778 27V27.5138C12.2778 27.6726 12.2896 27.8433 12.3133 28.0258H20.2778C21.9607 28.0258 23.3841 28.6083 24.548 29.7733C25.713 30.9372 26.2956 32.3553 26.2956 34.0276V35.5476H21.7818V40.4009C22.5119 40.664 23.2739 40.8667 24.068 41.0089C24.8621 41.1511 25.6727 41.2222 26.5 41.2222Z" fill="white"/>
</svg>
