<svg width="32" height="32" viewBox="0 0 32 32" fill="none" xmlns="http://www.w3.org/2000/svg">
<path d="M26.6665 5.33301H5.33317C3.8665 5.33301 2.67984 6.53301 2.67984 7.99967L2.6665 23.9997C2.6665 25.4663 3.8665 26.6663 5.33317 26.6663H26.6665C28.1332 26.6663 29.3332 25.4663 29.3332 23.9997V7.99967C29.3332 6.53301 28.1332 5.33301 26.6665 5.33301ZM26.1332 10.9997L16.7065 16.893C16.2798 17.1597 15.7198 17.1597 15.2932 16.893L5.8665 10.9997C5.73281 10.9246 5.61573 10.8232 5.52236 10.7016C5.42898 10.58 5.36125 10.4407 5.32327 10.2922C5.28529 10.1436 5.27784 9.98892 5.30138 9.83742C5.32492 9.68591 5.37895 9.54076 5.46021 9.41074C5.54147 9.28073 5.64827 9.16855 5.77414 9.081C5.90001 8.99345 6.04233 8.93236 6.1925 8.90141C6.34266 8.87046 6.49755 8.8703 6.64778 8.90094C6.79801 8.93158 6.94046 8.99239 7.0665 9.07967L15.9998 14.6663L24.9332 9.07967C25.0592 8.99239 25.2017 8.93158 25.3519 8.90094C25.5021 8.8703 25.657 8.87046 25.8072 8.90141C25.9573 8.93236 26.0997 8.99345 26.2255 9.081C26.3514 9.16855 26.4582 9.28073 26.5395 9.41074C26.6207 9.54076 26.6748 9.68591 26.6983 9.83742C26.7218 9.98892 26.7144 10.1436 26.6764 10.2922C26.6384 10.4407 26.5707 10.58 26.4773 10.7016C26.3839 10.8232 26.2669 10.9246 26.1332 10.9997Z" fill="white"/>
</svg>
