<svg width="33" height="33" viewBox="0 0 33 33" fill="none" xmlns="http://www.w3.org/2000/svg">
<rect width="33" height="33" rx="16.5" fill="white"/>
<path d="M25.3934 9.99869C25.8224 8.81204 24.6725 7.66213 23.4858 8.0921L8.98289 13.3372C7.79227 13.7682 7.64828 15.3928 8.74357 16.0273L13.373 18.7074L17.5069 14.5735C17.6942 14.3926 17.945 14.2925 18.2054 14.2948C18.4657 14.2971 18.7148 14.4015 18.8989 14.5856C19.083 14.7697 19.1875 15.0188 19.1897 15.2792C19.192 15.5395 19.0919 15.7904 18.911 15.9776L14.7771 20.1116L17.4582 24.741C18.0918 25.8363 19.7164 25.6913 20.1473 24.5017L25.3934 9.99869Z" fill="#CD9933"/>
</svg>
