<svg width="188" height="278" viewBox="0 0 188 278" fill="none" xmlns="http://www.w3.org/2000/svg">
<path d="M186.472 278C175.009 278 165.321 274.048 157.406 266.144C149.492 258.24 145.534 248.565 145.534 237.118C145.534 225.671 149.492 215.995 157.406 208.091C165.321 200.187 175.009 196.235 186.472 196.235C197.934 196.235 207.623 200.187 215.537 208.091C223.452 215.995 227.409 225.671 227.409 237.118C227.409 248.565 223.452 258.24 215.537 266.144C207.623 274.048 197.934 278 186.472 278ZM113.064 169.786C101.752 177.479 86.1455 177.623 76.5802 167.843C67.1547 158.206 67.1547 142.615 77.9061 134.484C89.5387 125.686 102.327 118.269 116.272 112.23C137.975 102.833 161.374 98.1285 186.472 98.1176C211.569 98.1067 234.975 102.876 256.688 112.426C270.724 118.6 283.584 126.193 295.266 135.205C305.883 143.394 305.724 158.909 296.236 168.383C286.708 177.899 271.378 177.665 260.27 170.053C253.103 165.141 245.424 160.922 237.234 157.397C221.405 150.583 204.484 147.176 186.472 147.176C168.459 147.176 151.538 150.583 135.709 157.397C127.668 160.858 120.12 164.988 113.064 169.786ZM42.4942 99.8209C32.0082 108.286 16.641 108.398 7.10522 98.8751C-2.38326 89.3994 -2.5359 73.9497 7.65846 65.2379C28.5684 47.3689 52.0114 32.8455 77.9874 21.6676C111.556 7.22255 147.718 0 186.472 0C225.226 0 261.387 7.22255 294.956 21.6676C320.936 32.8472 344.382 47.3733 365.295 65.2461C375.483 73.9538 375.331 89.3954 365.847 98.8661C356.309 108.391 340.937 108.271 330.452 99.7987C313.895 86.4186 295.583 75.436 275.519 66.8508C247.823 55.0004 218.141 49.0697 186.472 49.0588C154.803 49.0479 125.126 54.9786 97.4409 66.8508C77.3799 75.4538 59.0643 86.4438 42.4942 99.8209Z" fill="white" fill-opacity="0.02"/>
</svg>
