<svg width="150" height="202" viewBox="0 0 150 202" fill="none" xmlns="http://www.w3.org/2000/svg">
<path d="M-44 82.4015C-36.746 46.9127 -9.869 18.5105 24.8758 8.83846C27.796 8.02936 29.2468 7.62017 30.0373 8.48507C30.8278 9.35927 30.2419 10.7915 29.0887 13.6745L21.1 31.2515M67.6 8.00146C103.089 15.2555 131.491 42.1325 141.163 76.8773C141.972 79.7975 142.381 81.2483 141.516 82.0388C140.642 82.8293 139.21 82.2434 136.327 81.0902L118.75 73.1015M142 119.601C134.746 155.09 107.869 183.492 73.1242 193.164C70.204 193.974 68.7532 194.383 67.9627 193.518C67.1722 192.644 67.7581 191.211 68.9113 188.328L76.9 170.751M30.4 194.001C-5.0888 186.747 -33.491 159.87 -43.163 125.126C-43.9721 122.205 -44.3813 120.755 -43.5164 119.964C-42.6422 119.174 -41.21 119.76 -38.327 120.913L-20.75 128.901" stroke="white" stroke-opacity="0.02" stroke-width="16" stroke-linecap="round"/>
<path d="M76.8998 101.002C76.8998 108.402 73.9603 115.498 68.7281 120.731M76.8998 101.002C76.8998 93.6028 73.9603 86.5063 68.7281 81.2741M76.8998 101.002H90.8498M68.7281 120.731C63.4958 125.963 56.3993 128.902 48.9998 128.902M68.7281 120.731L78.5924 130.595M48.9998 128.902C41.6002 128.902 34.5038 125.963 29.2715 120.731M48.9998 128.902V142.852M68.7281 81.2741C63.4958 76.0418 56.3993 73.1023 48.9998 73.1023M68.7281 81.2741L78.5924 71.4097M48.9998 73.1023C41.6002 73.1023 34.5038 76.0418 29.2715 81.2741M48.9998 73.1023V59.1523M29.2715 120.731C24.0392 115.498 21.0998 108.402 21.0998 101.002M29.2715 120.731L19.4072 130.595M21.0998 101.002C21.0998 93.6028 24.0392 86.5063 29.2715 81.2741M21.0998 101.002H7.14977M29.2715 81.2741L19.4072 71.4097" stroke="white" stroke-opacity="0.02" stroke-width="16" stroke-linecap="round" stroke-linejoin="round"/>
</svg>
