<svg width="42" height="42" viewBox="0 0 42 42" fill="none" xmlns="http://www.w3.org/2000/svg">
<path d="M38.5 21C38.5 21 33.25 33.25 21 33.25C8.75 33.25 3.5 21 3.5 21C3.5 21 8.75 8.75 21 8.75C32.375 8.75 38.5 21 38.5 21Z" stroke="#CD9933" stroke-width="2" stroke-linejoin="round"/>
<path d="M20.4346 15.1848C20.4951 15.0898 20.5787 15.0116 20.6775 14.9574C20.7763 14.9032 20.8871 14.8748 20.9998 14.8748C21.1125 14.8748 21.2234 14.9032 21.3222 14.9574C21.421 15.0116 21.5045 15.0898 21.5651 15.1848L22.3281 16.3836C23.1695 17.7088 24.2929 18.8322 25.6181 19.6736L26.8151 20.4348C26.9101 20.4954 26.9884 20.5789 27.0425 20.6777C27.0967 20.7765 27.1252 20.8874 27.1252 21.0001C27.1252 21.1128 27.0967 21.2236 27.0425 21.3224C26.9884 21.4212 26.9101 21.5048 26.8151 21.5653L25.6163 22.3283C24.2911 23.1698 23.1678 24.2931 22.3263 25.6183L21.5651 26.8153C21.5045 26.9104 21.421 26.9886 21.3222 27.0428C21.2234 27.097 21.1125 27.1254 20.9998 27.1254C20.8871 27.1254 20.7763 27.097 20.6775 27.0428C20.5787 26.9886 20.4951 26.9104 20.4346 26.8153L19.6716 25.6166C18.8302 24.2914 17.7068 23.168 16.3816 22.3266L15.1846 21.5653C15.0896 21.5048 15.0113 21.4212 14.9571 21.3224C14.9029 21.2236 14.8745 21.1128 14.8745 21.0001C14.8745 20.8874 14.9029 20.7765 14.9571 20.6777C15.0113 20.5789 15.0896 20.4954 15.1846 20.4348L16.3833 19.6718C17.7086 18.8304 18.8319 17.7071 19.6733 16.3818L20.4346 15.1848Z" stroke="#CD9933" stroke-width="2" stroke-linejoin="round"/>
</svg>
