<svg width="42" height="42" viewBox="0 0 42 42" fill="none" xmlns="http://www.w3.org/2000/svg">
<path d="M21.6261 5.92355C19.2593 5.92288 16.9286 6.50349 14.8387 7.61436C12.7489 8.72523 10.9638 10.3324 9.64042 12.2945C8.31701 14.2567 7.49576 16.5139 7.24882 18.8677C7.00189 21.2216 7.33682 23.6001 8.2242 25.7942C8.27177 25.9115 8.29578 26.037 8.29484 26.1635C8.29391 26.2901 8.26806 26.4152 8.21876 26.5318C8.16947 26.6484 8.09769 26.7541 8.00754 26.8429C7.91738 26.9318 7.81061 27.002 7.69333 27.0496C7.57604 27.0971 7.45053 27.1211 7.32396 27.1202C7.19739 27.1193 7.07225 27.0934 6.95568 27.0441C6.8391 26.9948 6.73338 26.9231 6.64454 26.8329C6.55571 26.7428 6.4855 26.636 6.43792 26.5187C5.02194 23.0167 4.85996 19.1328 5.97943 15.5251C7.09889 11.9173 9.43098 8.80734 12.5807 6.722C15.7304 4.63666 19.5041 3.70412 23.2626 4.08233C27.0211 4.46054 30.5333 6.12625 33.2044 8.79732C35.8754 11.4684 37.5411 14.9806 37.9194 18.7391C38.2976 22.4976 37.365 26.2713 35.2797 29.421C33.1944 32.5707 30.0844 34.9028 26.4766 36.0223C22.8689 37.1417 18.985 36.9797 15.483 35.5638C15.2478 35.4668 15.0605 35.2807 14.962 35.0461C14.8635 34.8116 14.8618 34.5476 14.9572 34.3118C15.0526 34.0759 15.2374 33.8874 15.4713 33.7873C15.7051 33.6872 15.9691 33.6837 16.2056 33.7775C18.1816 34.5749 20.3095 34.9255 22.4369 34.8042C24.5644 34.6829 26.6386 34.0926 28.5112 33.0757C30.3837 32.0587 32.0082 30.6403 33.2683 28.922C34.5284 27.2036 35.393 25.2279 35.8 23.1362C36.207 21.0446 36.1465 18.8889 35.6228 16.8234C35.099 14.7579 34.125 12.8337 32.7704 11.1888C31.4159 9.54386 29.7144 8.21881 27.7877 7.30854C25.8611 6.39827 23.7569 5.92532 21.6261 5.92355Z" fill="#CD9933"/>
<path d="M11.0282 20.3755C11.0282 22.9556 11.9493 25.32 13.4812 27.1583L12.5563 28.0832H9.62154C8.85521 28.0839 8.12052 28.3889 7.57898 28.9311L4.42266 32.0855C4.2208 32.2876 4.08336 32.545 4.0277 32.8252C3.97204 33.1053 4.00066 33.3957 4.10994 33.6596C4.21922 33.9236 4.40426 34.1492 4.64169 34.308C4.87912 34.4668 5.15828 34.5517 5.44393 34.552H7.44795V36.556C7.4482 36.8416 7.5331 37.1208 7.69192 37.3582C7.85074 37.5957 8.07635 37.7807 8.34027 37.89C8.60419 37.9993 8.89458 38.0279 9.17475 37.9722C9.45493 37.9166 9.71233 37.7791 9.91444 37.5773L13.0688 34.4209C13.6113 33.8802 13.9169 33.1462 13.9186 32.3803V29.4475L14.8435 28.5226C16.6957 30.0653 19.0184 30.9305 21.4284 30.9755C23.8384 31.0205 26.1918 30.2427 28.1003 28.7702C30.0087 27.2978 31.3583 25.2188 31.9262 22.8762C32.4941 20.5336 32.2465 18.0674 31.2242 15.8845C30.2019 13.7015 28.4661 11.9323 26.303 10.8686C24.1399 9.80498 21.6788 9.51048 19.3258 10.0337C16.9729 10.5569 14.8685 11.8667 13.3601 13.7468C11.8516 15.6268 11.0291 17.965 11.0282 20.3755ZM21.6264 11.7042C23.0114 11.7047 24.3762 12.0369 25.6064 12.6731C26.8367 13.3093 27.8967 14.2309 28.6977 15.3608C29.4986 16.4908 30.0173 17.7961 30.2102 19.1676C30.4031 20.5392 30.2647 21.937 29.8065 23.244C29.3483 24.551 28.5837 25.7293 27.5767 26.6802C26.5697 27.6311 25.3495 28.3269 24.0183 28.7094C22.6872 29.0919 21.2838 29.15 19.9255 28.8788C18.5673 28.6076 17.2938 28.015 16.2117 27.1506L19.6667 23.6956C20.4747 24.172 21.4287 24.3374 22.35 24.1607C23.2712 23.984 24.0964 23.4774 24.6708 22.7359C25.2453 21.9943 25.5295 21.0687 25.4703 20.1326C25.4111 19.1964 25.0125 18.314 24.3492 17.6507C23.6859 16.9874 22.8035 16.5888 21.8674 16.5296C20.9312 16.4704 20.0056 16.7547 19.264 17.3291C18.5225 17.9035 18.0159 18.7287 17.8392 19.6499C17.6625 20.5712 17.8279 21.5252 18.3043 22.3332L14.8513 25.7882C13.8319 24.5125 13.1935 22.9748 13.0096 21.3522C12.8256 19.7296 13.1036 18.088 13.8115 16.6165C14.5194 15.1449 15.6285 13.9031 17.011 13.0341C18.3936 12.1651 19.9934 11.7041 21.6264 11.7042ZM8.94133 30.2915C9.03097 30.2021 9.13735 30.1312 9.2544 30.0829C9.37145 30.0347 9.49686 30.0099 9.62347 30.0102H11.9917V32.3784C11.9911 32.6337 11.8892 32.8783 11.7084 33.0586L9.37682 35.3902V33.5885C9.37682 33.333 9.27531 33.0879 9.09463 32.9072C8.91394 32.7265 8.66888 32.625 8.41335 32.625H6.60973L8.94133 30.2915Z" fill="#CD9933"/>
</svg>
