<svg width="28" height="28" viewBox="0 0 28 28" fill="none" xmlns="http://www.w3.org/2000/svg">
<path d="M14 7V21M17.5 11.0833C17.5 9.47333 15.9332 8.16667 14 8.16667C12.0668 8.16667 10.5 9.47333 10.5 11.0833C10.5 12.6933 12.0668 14 14 14C15.9332 14 17.5 15.3067 17.5 16.9167C17.5 18.5267 15.9332 19.8333 14 19.8333C12.0668 19.8333 10.5 18.5267 10.5 16.9167" stroke="#CD9933" stroke-width="1.5" stroke-linecap="round"/>
<path d="M8.16671 3.89427C9.9394 2.86845 11.9519 2.32989 14 2.33327C20.4435 2.33327 25.6667 7.55643 25.6667 13.9999C25.6667 20.4434 20.4435 25.6666 14 25.6666C7.55654 25.6666 2.33337 20.4434 2.33337 13.9999C2.33337 11.8754 2.90154 9.8816 3.89437 8.1666" stroke="#CD9933" stroke-width="1.5" stroke-linecap="round"/>
</svg>
