<svg width="28" height="28" viewBox="0 0 28 28" fill="none" xmlns="http://www.w3.org/2000/svg">
<path d="M14 24.5001C13.1834 24.5001 12.4931 24.2181 11.9292 23.6543C11.3653 23.0904 11.0834 22.4001 11.0834 21.5834C11.0834 20.7668 11.3653 20.0765 11.9292 19.5126C12.4931 18.9487 13.1834 18.6668 14 18.6668C14.8167 18.6668 15.507 18.9487 16.0709 19.5126C16.6348 20.0765 16.9167 20.7668 16.9167 21.5834C16.9167 22.4001 16.6348 23.0904 16.0709 23.6543C15.507 24.2181 14.8167 24.5001 14 24.5001ZM14 11.6667C15.4584 11.6667 16.844 11.9001 18.1569 12.3667C19.4698 12.8334 20.6605 13.4751 21.7292 14.2917C22.1181 14.5834 22.3176 14.9676 22.3277 15.4444C22.3378 15.9212 22.1675 16.3342 21.8167 16.6834C21.4861 17.014 21.0778 17.1843 20.5917 17.1944C20.1056 17.2045 19.6681 17.0731 19.2792 16.8001C18.5403 16.2945 17.7236 15.8959 16.8292 15.6042C15.9348 15.3126 14.9917 15.1667 14 15.1667C13.0084 15.1667 12.0653 15.3126 11.1709 15.6042C10.2764 15.8959 9.45975 16.2945 8.72086 16.8001C8.33197 17.0723 7.89447 17.1987 7.40836 17.1793C6.92225 17.1598 6.51392 16.9848 6.18336 16.6542C5.85281 16.3042 5.68753 15.8913 5.68753 15.4153C5.68753 14.9393 5.88197 14.555 6.27086 14.2626C7.34031 13.4459 8.53147 12.8089 9.84436 12.3516C11.1573 11.8942 12.5425 11.666 14 11.6667ZM14 4.66675C16.4306 4.66675 18.7204 5.06536 20.8694 5.86258C23.0184 6.6598 24.948 7.78758 26.6584 9.24592C27.0473 9.57647 27.2514 9.9848 27.2709 10.4709C27.2903 10.957 27.125 11.3751 26.775 11.7251C26.4445 12.0556 26.0361 12.226 25.55 12.2361C25.0639 12.2462 24.6264 12.0953 24.2375 11.7834C22.8375 10.6362 21.2676 9.7468 19.5277 9.11525C17.7878 8.48369 15.9453 8.16753 14 8.16675C12.0548 8.16597 10.2126 8.48214 8.47353 9.11525C6.73442 9.74836 5.16409 10.6377 3.76253 11.7834C3.37364 12.0945 2.93614 12.2454 2.45003 12.2361C1.96392 12.2267 1.55559 12.0564 1.22503 11.7251C0.87503 11.3751 0.709752 10.957 0.729196 10.4709C0.748641 9.9848 0.952807 9.57647 1.3417 9.24592C3.05281 7.78758 4.98286 6.6598 7.13186 5.86258C9.28086 5.06536 11.5703 4.66675 14 4.66675Z" fill="#CD9933"/>
</svg>
