<svg width="28" height="28" viewBox="0 0 28 28" fill="none" xmlns="http://www.w3.org/2000/svg">
<path d="M25.6667 13.9999C25.6667 7.55642 20.4435 2.33325 14 2.33325C7.55654 2.33325 2.33337 7.55642 2.33337 13.9999C2.33337 20.4434 7.55654 25.6666 14 25.6666" stroke="#CD9933" stroke-width="1.5" stroke-linecap="round" stroke-linejoin="round"/>
<path d="M15.1667 2.3916C15.1667 2.3916 18.6667 6.99993 18.6667 13.9999M12.8334 25.6083C12.8334 25.6083 9.33336 20.9999 9.33336 13.9999C9.33336 6.99993 12.8334 2.3916 12.8334 2.3916M3.06836 18.0833H14M3.06836 9.9166H24.9317" stroke="#CD9933" stroke-width="1.5" stroke-linecap="round" stroke-linejoin="round"/>
<path d="M25.5255 20.903C26.1018 21.2577 26.0657 22.1198 25.473 22.1875L22.4782 22.527L21.1353 25.2243C20.8693 25.7598 20.0468 25.4973 19.9103 24.8347L18.4462 17.6993C18.3307 17.1393 18.8347 16.787 19.3212 17.0868L25.5255 20.903Z" stroke="#CD9933" stroke-width="1.5"/>
</svg>
